<?xml version="1.0" standalone="no"?>
<!DOCTYPE svg PUBLIC "-//W3C//DTD SVG 20010904//EN"
 "http://www.w3.org/TR/2001/REC-SVG-20010904/DTD/svg10.dtd">
<svg version="1.0" xmlns="http://www.w3.org/2000/svg"
 width="383.000000pt" height="96.000000pt" viewBox="0 0 383.000000 96.000000"
 preserveAspectRatio="xMidYMid meet">

<g transform="translate(0.000000,96.000000) scale(0.100000,-0.100000)"
fill="#000000" stroke="none">
<path d="M3087 682 c-33 -106 -34 -123 -2 -159 20 -22 26 -25 34 -14 13 20 23
132 16 177 l-6 39 17 -29 c13 -24 16 -47 12 -118 -5 -82 -4 -87 13 -78 24 13
56 60 65 94 11 43 -21 110 -69 146 -22 16 -43 30 -46 30 -4 0 -18 -40 -34 -88z"/>
<path d="M3400 744 c14 -3 35 -7 48 -10 l22 -4 -24 -48 c-13 -26 -29 -63 -35
-82 -13 -39 -47 -82 -79 -99 -31 -17 -92 -14 -92 4 0 8 33 49 73 92 39 42 63
71 52 65 -39 -21 -86 -68 -123 -122 -29 -41 -51 -61 -95 -82 -35 -18 -57 -35
-57 -45 0 -14 3 -14 23 4 36 34 78 50 147 58 105 12 135 34 170 127 11 31 32
73 46 93 14 21 23 40 19 43 -3 3 -31 7 -63 8 -31 2 -46 1 -32 -2z"/>
<path d="M3330 733 c-8 -3 -30 -14 -48 -25 -54 -33 -28 -32 35 1 50 27 58 40
13 24z"/>
<path d="M2870 451 l0 -79 -37 20 c-69 35 -152 8 -193 -64 -51 -90 -21 -226
60 -270 42 -22 101 -23 140 -3 27 14 30 14 30 0 0 -12 14 -15 75 -15 l75 0 0
245 0 245 -75 0 -75 0 0 -79z m-18 -178 c48 -43 -6 -149 -59 -115 -22 14 -33
60 -22 89 17 45 49 56 81 26z"/>
<path d="M320 270 l0 -230 75 0 75 0 0 59 0 58 69 5 c123 9 181 64 181 173 0
48 -5 70 -23 96 -39 59 -73 69 -234 69 l-143 0 0 -230z m242 103 c42 -38 11
-93 -53 -93 l-39 0 0 55 0 55 37 0 c20 0 45 -7 55 -17z"/>
<path d="M876 399 c-123 -30 -178 -184 -101 -285 77 -101 274 -99 342 4 60 90
27 218 -69 268 -35 18 -124 25 -172 13z m99 -123 c27 -20 27 -92 0 -112 -26
-19 -41 -18 -65 6 -24 24 -26 67 -4 98 17 25 42 28 69 8z"/>
<path d="M1410 399 c-13 -6 -33 -17 -42 -26 -17 -15 -18 -15 -18 5 0 21 -5 22
-75 22 l-75 0 2 -177 3 -178 73 -3 72 -3 0 99 c0 112 9 128 74 139 l36 6 0 63
c0 68 -3 71 -50 53z"/>
<path d="M1707 390 c-31 -17 -37 -17 -37 -5 0 12 -15 15 -75 15 l-75 0 0 -180
0 -181 73 3 72 3 3 108 c3 103 4 108 27 119 45 21 55 -1 55 -123 l0 -109 75 0
75 0 0 104 c0 107 10 136 45 136 32 0 45 -42 45 -142 l0 -98 70 0 70 0 0 140
c0 104 -4 148 -15 169 -15 30 -69 61 -104 61 -34 0 -87 -26 -105 -51 l-16 -23
-16 23 c-18 26 -71 51 -106 51 -13 0 -40 -9 -61 -20z"/>
<path d="M2288 397 c-32 -8 -61 -16 -64 -20 -9 -8 16 -97 27 -97 4 0 30 5 58
12 38 8 57 9 76 0 42 -19 29 -32 -35 -32 -103 0 -160 -38 -160 -107 0 -72 43
-113 120 -113 23 0 54 7 70 15 25 13 29 13 34 0 4 -11 23 -15 76 -15 l70 0 0
131 c0 148 -10 183 -61 213 -40 24 -137 29 -211 13z m122 -227 c0 -24 -34 -43
-60 -35 -19 6 -27 35 -13 48 3 4 21 7 40 7 26 0 33 -4 33 -20z"/>
<path d="M3201 400 c-81 -19 -126 -83 -126 -180 0 -75 18 -113 72 -150 65 -45
194 -39 258 12 l26 21 -36 37 c-35 36 -38 37 -63 24 -38 -20 -76 -17 -97 6
-18 20 -17 20 105 20 l122 0 -7 47 c-9 60 -26 94 -65 126 -50 42 -114 55 -189
37z m91 -107 c28 -25 22 -33 -27 -33 -49 0 -53 4 -28 32 20 22 31 23 55 1z"/>
</g>
</svg>
