<?xml version="1.0" encoding="UTF-8"?>
<svg version="1.1" xmlns="http://www.w3.org/2000/svg" width="256" height="256">
<path d="M0 0 C5.41295326 0.28489228 8.97518544 2.59175252 13.43359375 5.40234375 C15.70830947 6.81841487 18.00036668 8.07562203 20.375 9.3125 C42.93819598 21.80354874 61.68562853 42.13741544 69 67 C73.26120625 85.81599124 69.76017224 104.27501862 59.6484375 120.44921875 C59.10445313 121.29097656 58.56046875 122.13273437 58 123 C57.47664063 123.93457031 56.95328125 124.86914062 56.4140625 125.83203125 C55.94742188 126.54746094 55.48078125 127.26289063 55 128 C54.34 128 53.68 128 53 128 C52.73703125 128.58523437 52.4740625 129.17046875 52.203125 129.7734375 C48.61768064 136.40883779 41.90314855 141.03850743 35.9375 145.4375 C35.36032227 145.87465332 34.78314453 146.31180664 34.18847656 146.76220703 C30.10568681 149.68492933 27.01295314 150.64877398 22 151 C21.73646742 145.23522485 22.23048136 139.77145242 23.09375 134.07421875 C25.57718206 117.59849545 27.51958481 101.37010892 27.5625 84.6875 C27.57482666 83.60461197 27.57482666 83.60461197 27.58740234 82.49984741 C27.7316467 65.47828253 23.64698589 50.23162129 16 35 C16.11593506 35.57854736 16.23187012 36.15709473 16.35131836 36.75317383 C20.68846058 58.53858935 20.68846058 58.53858935 21 67 C21.06316406 68.02996094 21.12632813 69.05992188 21.19140625 70.12109375 C21.87032391 90.46672289 17.52097285 111.19179379 14.375 131.25 C14.27103912 131.92515656 14.16707825 132.60031311 14.05996704 133.29592896 C13.76418074 135.20376086 13.45657756 137.1097494 13.1484375 139.015625 C12.97489746 140.10133789 12.80135742 141.18705078 12.62255859 142.30566406 C12 145 12 145 10 148 C1.25221877 147.07712858 -6.13923115 141.42132845 -11.9375 135 C-12.98124544 133.68452521 -14.00359754 132.35168806 -15 131 C-15.47050781 130.40960938 -15.94101562 129.81921875 -16.42578125 129.2109375 C-24.94325058 117.40205672 -24.25393842 100.45457948 -22.17553711 86.63867188 C-18.99123231 67.87975457 -11.79624845 49.9141838 -3.625 32.8125 C1.51083608 21.87093619 1.75254283 11.82966409 0 0 Z " fill="#529D48" transform="translate(38,32)"/>
<path d="M0 0 C-0.36521105 5.85228438 -2.76496716 8.69007712 -6.4375 12.9375 C-12.54447794 20.29653618 -17.94769148 27.88535607 -23 36 C-24.04800781 37.63001953 -24.04800781 37.63001953 -25.1171875 39.29296875 C-30.60664162 48.57377738 -33.249286 58.28043309 -36.07299805 68.64746094 C-42.69322573 92.76875074 -54.45926682 112.95527965 -76.55078125 126.06640625 C-92.74309348 135.14363678 -109.6820626 137.17056272 -127.97875977 137.64648438 C-153.89337812 138.40071431 -176.55013644 147.73772345 -196.49609375 164.06640625 C-199 166 -199 166 -202 167 C-202 167.66 -202 168.32 -202 169 C-203.609375 170.62109375 -203.609375 170.62109375 -205.75 172.4375 C-206.44609375 173.03433594 -207.1421875 173.63117188 -207.859375 174.24609375 C-209.8669308 175.89097068 -211.91915592 177.44971127 -214 179 C-214.45933593 173.16431362 -214.72535062 167.34663764 -214.6015625 161.4921875 C-214.58432129 160.53683105 -214.56708008 159.58147461 -214.54931641 158.59716797 C-213.84963131 155.28905683 -212.60205601 154.09765472 -210 152 C-208.02443949 151.26406174 -206.01927511 150.60578253 -204 150 C-202.04175227 149.16451541 -200.11506009 148.27151898 -198.18237305 147.37866211 C-192.75646463 144.89653597 -187.21530835 142.68025189 -181.6875 140.4375 C-170.54303963 135.78145861 -161.27565278 129.62916157 -152 122 C-151.35804688 121.47535156 -150.71609375 120.95070312 -150.0546875 120.41015625 C-145.3658341 116.1754588 -142.82457404 110.54021134 -140 105 C-131.93873312 89.2652935 -119.67605061 72.34529511 -106 61 C-105.34 61 -104.68 61 -104 61 C-103.505 59.515 -103.505 59.515 -103 58 C-101.00390625 56.17578125 -101.00390625 56.17578125 -98.5625 54.3125 C-97.75941406 53.68988281 -96.95632812 53.06726563 -96.12890625 52.42578125 C-94 51 -94 51 -92 51 C-92 50.34 -92 49.68 -92 49 C-84.78873712 43.09141687 -76.12954149 38.67359433 -68.0625 34.0625 C-67.05566162 33.48266357 -66.04882324 32.90282715 -65.01147461 32.30541992 C-64.04991455 31.76248291 -63.08835449 31.2195459 -62.09765625 30.66015625 C-61.23664307 30.17168213 -60.37562988 29.68320801 -59.48852539 29.17993164 C-56.97267452 27.98704365 -54.74263608 27.41960644 -52 27 C-52.92961422 28.15224028 -53.8690125 29.29659176 -54.8125 30.4375 C-55.59560547 31.39462891 -55.59560547 31.39462891 -56.39453125 32.37109375 C-58 34 -58 34 -61 35 C-62.20882096 37.00016466 -62.20882096 37.00016466 -63 39 C-63.66 39 -64.32 39 -65 39 C-65 39.66 -65 40.32 -65 41 C-65.66 41 -66.32 41 -67 41 C-67 41.66 -67 42.32 -67 43 C-67.66 43 -68.32 43 -69 43 C-69 43.66 -69 44.32 -69 45 C-70.64351457 46.36176922 -72.31522656 47.68962066 -74 49 C-76.31168894 51.25085503 -78.56593589 53.54804604 -80.80078125 55.875 C-81.42339844 56.514375 -82.04601562 57.15375 -82.6875 57.8125 C-83.55955078 58.71935547 -83.55955078 58.71935547 -84.44921875 59.64453125 C-86 61 -86 61 -88 61 C-88 61.66 -88 62.32 -88 63 C-88.66 63 -89.32 63 -90 63 C-90 63.66 -90 64.32 -90 65 C-91.50390625 66.48046875 -91.50390625 66.48046875 -93.5625 68.1875 C-100.6578539 73.85095856 -100.6578539 73.85095856 -106 81 C-106.66 81 -107.32 81 -108 81 C-108.23589844 81.54914063 -108.47179687 82.09828125 -108.71484375 82.6640625 C-110.32685363 85.5940987 -112.35948843 87.85825752 -114.5625 90.375 C-119.26310069 95.86633187 -123.21550121 101.65043608 -127.01171875 107.79296875 C-128.20416746 109.71634869 -129.42682268 111.62216487 -130.70703125 113.48828125 C-133.40865022 117.38906964 -133.40865022 117.38906964 -133.8125 122 C-133.4103125 122.99 -133.4103125 122.99 -133 124 C-116.26994096 128.75415687 -98.80444229 124.08926706 -84.15234375 115.9375 C-81.64094387 114.39393824 -79.98982409 113.0876843 -78 111 C-77.34 111 -76.68 111 -76 111 C-76 110.34 -76 109.68 -76 109 C-75.34 109 -74.68 109 -74 109 C-74 108.34 -74 107.68 -74 107 C-73.34 107 -72.68 107 -72 107 C-72 106.34 -72 105.68 -72 105 C-70.68799596 103.64567325 -69.35368596 102.31266518 -68 101 C-67.67 100.34 -67.34 99.68 -67 99 C-66.34 99 -65.68 99 -65 99 C-64.72542969 98.26265625 -64.45085937 97.5253125 -64.16796875 96.765625 C-63.07857394 94.18605469 -61.84446756 92.08362729 -60.3125 89.75 C-53.57221054 78.61386959 -49.62279993 66.06763874 -45.4375 53.8125 C-39.64419804 36.86900103 -33.10781258 22.2000974 -22 8 C-27.95027613 2.04972387 -44.88370687 1.902478 -53.125 1.859375 C-56.15431963 2.05241988 -59.02129115 2.42456761 -62 3 C-62.94875 3.1546875 -63.8975 3.309375 -64.875 3.46875 C-76.6727999 5.85341168 -87.39567578 11.92998575 -97 19 C-98.66279327 20.0064275 -100.32983484 21.00585407 -102 22 C-102.65742188 22.46535156 -103.31484375 22.93070313 -103.9921875 23.41015625 C-112.46035717 29.37303697 -120.57831633 31.92874062 -131 32 C-131.66 31.67 -132.32 31.34 -133 31 C-132.34764741 25.70875852 -130.28855361 23.99867083 -126.30908203 20.7265625 C-122.67958727 18.01269203 -118.88602017 15.71656305 -114.9375 13.5 C-114.10605469 13.02860596 -113.27460938 12.55721191 -112.41796875 12.0715332 C-95.81344518 2.76809759 -78.11351007 -4.9633145 -59 -7 C-57.95328125 -7.12117188 -56.9065625 -7.24234375 -55.828125 -7.3671875 C-39.28720738 -8.92980875 -14.26590467 -9.51060311 0 0 Z " fill="#579D4D" transform="translate(243,53)"/>
<path d="M0 0 C0.495 1.98 0.495 1.98 1 4 C-1.31 4.33 -3.62 4.66 -6 5 C-5.505 5.99 -5.505 5.99 -5 7 C-3.10466658 7.46523063 -3.10466658 7.46523063 -0.9375 7.625 C0.361875 7.74875 1.66125 7.8725 3 8 C3 7.34 3 6.68 3 6 C4.65 5.67 6.3 5.34 8 5 C8 4.67 8 4.34 8 4 C8.95712891 3.90912109 8.95712891 3.90912109 9.93359375 3.81640625 C10.75988281 3.73261719 11.58617187 3.64882812 12.4375 3.5625 C13.67306641 3.44068359 13.67306641 3.44068359 14.93359375 3.31640625 C16.98662025 3.21069185 16.98662025 3.21069185 18 2 C20.18639453 1.92741054 22.37500389 1.91626217 24.5625 1.9375 C26.35880859 1.95103516 26.35880859 1.95103516 28.19140625 1.96484375 C29.11824219 1.97644531 30.04507813 1.98804688 31 2 C31 2.33 31 2.66 31 3 C29.52853516 3.23783203 29.52853516 3.23783203 28.02734375 3.48046875 C6.47866805 7.12579986 -11.5830799 15.22063119 -28.49609375 29.06640625 C-31 31 -31 31 -34 32 C-34 32.66 -34 33.32 -34 34 C-35.609375 35.62109375 -35.609375 35.62109375 -37.75 37.4375 C-38.44609375 38.03433594 -39.1421875 38.63117188 -39.859375 39.24609375 C-41.8669308 40.89097068 -43.91915592 42.44971127 -46 44 C-46.45933593 38.16431362 -46.72535062 32.34663764 -46.6015625 26.4921875 C-46.58432129 25.53683105 -46.56708008 24.58147461 -46.54931641 23.59716797 C-45.84963131 20.28905683 -44.60205601 19.09765472 -42 17 C-40.02443949 16.26406174 -38.01927511 15.60578253 -36 15 C-34.04131176 14.16432747 -32.11421295 13.27112084 -30.18115234 12.37792969 C-23.70735328 9.41698526 -17.08149044 6.77590571 -10.5 4.06640625 C-8.41020195 3.17497677 -6.39204625 2.2299638 -4.375 1.1875 C-2 0 -2 0 0 0 Z " fill="#549E4A" transform="translate(75,188)"/>
<path d="M0 0 C1.32 0.99 2.64 1.98 4 3 C3.79375 3.7425 3.5875 4.485 3.375 5.25 C2.6924227 8.32478148 2.6924227 8.32478148 5 12 C12.59 12.33 20.18 12.66 28 13 C28 13.66 28 14.32 28 15 C28.99 15 29.98 15 31 15 C31.495 15.99 31.495 15.99 32 17 C32.70125 16.79375 33.4025 16.5875 34.125 16.375 C37.60186072 15.92149643 39.77398123 16.72459723 43 18 C43 18.33 43 18.66 43 19 C42.14535156 19.06058594 41.29070312 19.12117188 40.41015625 19.18359375 C38.75306641 19.30927734 38.75306641 19.30927734 37.0625 19.4375 C35.96035156 19.51871094 34.85820312 19.59992188 33.72265625 19.68359375 C31.08890097 19.70418084 31.08890097 19.70418084 30 21 C27.05964051 21.29098894 24.13467164 21.5238153 21.1875 21.71875 C20.30344482 21.78155151 19.41938965 21.84435303 18.50854492 21.90905762 C14.70961136 22.17878156 10.90995913 22.43772669 7.11035156 22.69775391 C4.34412959 22.88857682 1.57832503 23.08477131 -1.1875 23.28125 C-2.48747925 23.3672345 -2.48747925 23.3672345 -3.8137207 23.45495605 C-7.72811922 23.37470885 -7.72811922 23.37470885 -11 25 C-13.65463121 25.45459858 -16.32189138 25.70243238 -19 26 C-19 26.33 -19 26.66 -19 27 C-20.98 27 -22.96 27 -25 27 C-25 27.66 -25 28.32 -25 29 C-27.64 29 -30.28 29 -33 29 C-33.33 28.01 -33.66 27.02 -34 26 C-33.195625 25.731875 -32.39125 25.46375 -31.5625 25.1875 C-30.716875 24.795625 -29.87125 24.40375 -29 24 C-28.67 23.01 -28.34 22.02 -28 21 C-25.10441559 19.5522078 -23.25811062 19 -20 19 C-19.773125 18.360625 -19.54625 17.72125 -19.3125 17.0625 C-18 15 -18 15 -15.5 14.4375 C-14.675 14.293125 -13.85 14.14875 -13 14 C-12.34 13.01 -11.68 12.02 -11 11 C-10.34 11.33 -9.68 11.66 -9 12 C-9 13.65 -9 15.3 -9 17 C-8.34 17 -7.68 17 -7 17 C-7.21269531 15.89591797 -7.21269531 15.89591797 -7.4296875 14.76953125 C-8.61145729 6.92216522 -8.61145729 6.92216522 -6.80078125 4.19140625 C-4.69730197 2.47500791 -2.42298037 1.21149018 0 0 Z " fill="#4F9E44" transform="translate(103,167)"/>
<path d="M0 0 C2.64 0 5.28 0 8 0 C8 0.66 8 1.32 8 2 C8.928125 2.1546875 8.928125 2.1546875 9.875 2.3125 C12 3 12 3 14 6 C17.08365871 6.2502157 17.08365871 6.2502157 20 6 C20.33 6.99 20.66 7.98 21 9 C21.99 9.66 22.98 10.32 24 11 C23.67 11.99 23.34 12.98 23 14 C23.763125 14.12375 24.52625 14.2475 25.3125 14.375 C28 15 28 15 31 17 C30.34 17.66 29.68 18.32 29 19 C25.66867496 18.8246671 24.26194574 18.23284066 21.75 16 C21.1725 15.34 20.595 14.68 20 14 C19.67 13.67 19.34 13.34 19 13 C16.64214682 13.89335797 16.64214682 13.89335797 15.875 17.0625 C15.441875 18.5165625 15.441875 18.5165625 15 20 C15.474375 20.350625 15.94875 20.70125 16.4375 21.0625 C18.68781301 23.85288813 18.63018171 26.48672627 19 30 C19.30903983 31.33917261 19.62942911 32.67653254 20 34 C21.65 34 23.3 34 25 34 C24.67 35.98 24.34 37.96 24 40 C22.68 40 21.36 40 20 40 C19.34 38.02 18.68 36.04 18 34 C17.34 34 16.68 34 16 34 C15.72736328 33.06027344 15.72736328 33.06027344 15.44921875 32.1015625 C15.19785156 31.28429687 14.94648437 30.46703125 14.6875 29.625 C14.44386719 28.81289062 14.20023438 28.00078125 13.94921875 27.1640625 C13.08631815 24.66815371 13.08631815 24.66815371 10 23 C9.34 23.33 8.68 23.66 8 24 C7.67 24.99 7.34 25.98 7 27 C4.69 27.33 2.38 27.66 0 28 C-2.36160155 24.30999758 -2.35347546 21.31240062 -2 17 C-1.30500999 14.65792385 -0.50036559 12.37601401 0.328125 10.078125 C1.54891584 6.30219055 1.23558819 3.70676456 0 0 Z " fill="#4E9E44" transform="translate(42,38)"/>
<path d="M0 0 C2.31 0 4.62 0 7 0 C7.33 1.32 7.66 2.64 8 4 C7.01 4 6.02 4 5 4 C5 4.66 5 5.32 5 6 C4.34 6 3.68 6 3 6 C5.5654594 8.5654594 7.47686668 8.54046087 11 9 C11.66 6.69 12.32 4.38 13 2 C15.64 2.33 18.28 2.66 21 3 C20.56869352 8.56469933 18.53450683 11.6421616 15.1875 15.875 C14.74857422 16.46796875 14.30964844 17.0609375 13.85742188 17.671875 C12.54296875 19.3671875 12.54296875 19.3671875 10 22 C8.68 22 7.36 22 6 22 C6 22.66 6 23.32 6 24 C4.68 24 3.36 24 2 24 C1.67 24.66 1.34 25.32 1 26 C0.01 24.68 -0.98 23.36 -2 22 C-4.11007147 23.74310252 -4.95559826 24.86337925 -5.8125 27.5 C-6.27671738 30.25158089 -6.27671738 30.25158089 -4 33 C-3.61500109 34.65549531 -3.27206865 36.3222433 -3 38 C-4.32 38 -5.64 38 -7 38 C-7.495 36.515 -7.495 36.515 -8 35 C-10.01508358 34.26676204 -10.01508358 34.26676204 -12 34 C-12 31.69 -12 29.38 -12 27 C-11.38125 26.95875 -10.7625 26.9175 -10.125 26.875 C-9.42375 26.58625 -8.7225 26.2975 -8 26 C-7.29618843 24.01276732 -6.6288189 22.01222047 -6 20 C-5.01 19.67 -4.02 19.34 -3 19 C-3 18.01 -3 17.02 -3 16 C-2.01 15.34 -1.02 14.68 0 14 C0.36297936 12.02252878 0.36297936 12.02252878 0.1875 9.875 C0.125625 8.59625 0.06375 7.3175 0 6 C-1.3303125 6.2784375 -1.3303125 6.2784375 -2.6875 6.5625 C-5.85178811 6.98042484 -7.94839642 6.80777742 -11 6 C-9 4 -9 4 -6.8359375 3.8046875 C-5.61777344 3.83949219 -5.61777344 3.83949219 -4.375 3.875 C-3.14910156 3.90207031 -3.14910156 3.90207031 -1.8984375 3.9296875 C-0.95871094 3.96449219 -0.95871094 3.96449219 0 4 C0 2.68 0 1.36 0 0 Z " fill="#509E45" transform="translate(222,50)"/>
<path d="M0 0 C0.12375 0.639375 0.2475 1.27875 0.375 1.9375 C0.58125 2.618125 0.7875 3.29875 1 4 C1.66 4.33 2.32 4.66 3 5 C3.02903577 8.10414702 3.0468107 11.20825909 3.0625 14.3125 C3.07087891 15.19357422 3.07925781 16.07464844 3.08789062 16.98242188 C3.09272461 18.25375977 3.09272461 18.25375977 3.09765625 19.55078125 C3.10551147 20.72120972 3.10551147 20.72120972 3.11352539 21.9152832 C3 24 3 24 2 27 C1.77548542 29.22574335 1.59217122 31.45581519 1.4375 33.6875 C1.35371094 34.86699219 1.26992188 36.04648438 1.18359375 37.26171875 C1.12300781 38.16535156 1.06242187 39.06898438 1 40 C0.34 40 -0.32 40 -1 40 C-0.98839844 40.72703125 -0.97679687 41.4540625 -0.96484375 42.203125 C-0.83004898 57.22311389 -0.83004898 57.22311389 -2 64 C-2.99 64.99 -2.99 64.99 -4 66 C-4.42686423 68.82552559 -4.42686423 68.82552559 -4.5625 72 C-4.90463215 77.80926431 -4.90463215 77.80926431 -6 80 C-8.31 80 -10.62 80 -13 80 C-13.495 77.525 -13.495 77.525 -14 75 C-12.0625 74.4375 -12.0625 74.4375 -10 74 C-9.67 74.33 -9.34 74.66 -9 75 C-8.95101562 74.13117188 -8.90203125 73.26234375 -8.8515625 72.3671875 C-8.73941406 70.63855469 -8.73941406 70.63855469 -8.625 68.875 C-8.55539063 67.73804688 -8.48578125 66.60109375 -8.4140625 65.4296875 C-8 62 -8 62 -6.96875 59.09375 C-5.74100332 55.17288157 -5.77919987 51.70019005 -5.875 47.625 C-5.88402344 46.88894531 -5.89304687 46.15289062 -5.90234375 45.39453125 C-5.92569856 43.5962112 -5.96156164 41.79806089 -6 40 C-5.34 40 -4.68 40 -4 40 C-3.16226929 35.45231902 -2.68343679 30.91980084 -2.2578125 26.3203125 C-2 24 -2 24 -1.375 21.3125 C-0.85083945 18.08017662 -1.47398549 15.2145331 -2 12 C-2 10.68 -2 9.36 -2 8 C-2.04125 7.154375 -2.0825 6.30875 -2.125 5.4375 C-2 3 -2 3 0 0 Z " fill="#4C9F42" transform="translate(54,96)"/>
<path d="M0 0 C0.5775 0.495 1.155 0.99 1.75 1.5 C4.10400629 3.36980013 4.10400629 3.36980013 8 3 C8 2.34 8 1.68 8 1 C8.99 1.33 9.98 1.66 11 2 C10.443125 2.77601562 9.88625 3.55203125 9.3125 4.3515625 C1.37690086 15.53107631 -5.90261236 26.79131616 -10 40 C-10.33 40 -10.66 40 -11 40 C-11.359854 34.00243338 -10.88340271 30.39070941 -8 25 C-8.19530151 22.70112992 -8.19530151 22.70112992 -9 21 C-9.598125 21.66 -10.19625 22.32 -10.8125 23 C-13.47747412 25.43654777 -14.56358049 25 -18 25 C-16.53012914 18.85326729 -13.94033413 13.57765673 -11 8 C-10.67 8 -10.34 8 -10 8 C-10 9.65 -10 11.3 -10 13 C-8.35 13.33 -6.7 13.66 -5 14 C-5 14.99 -5 15.98 -5 17 C-4.34 16.34 -3.68 15.68 -3 15 C-3.26676204 13.01508358 -3.26676204 13.01508358 -4 11 C-5 8 -5 8 -4.25 5.5 C-3.06488343 3.12976686 -1.98707119 1.71610694 0 0 Z " fill="#579E4D" transform="translate(220,71)"/>
<path d="M0 0 C0.99 0.33 1.98 0.66 3 1 C1.88121617 2.17262904 0.75476949 3.33795138 -0.375 4.5 C-1.00148437 5.1496875 -1.62796875 5.799375 -2.2734375 6.46875 C-4 8 -4 8 -6 8 C-6.66 9.32 -7.32 10.64 -8 12 C-8.66 12 -9.32 12 -10 12 C-10 12.66 -10 13.32 -10 14 C-10.66 14 -11.32 14 -12 14 C-12 14.66 -12 15.32 -12 16 C-12.66 16 -13.32 16 -14 16 C-14 16.66 -14 17.32 -14 18 C-15.64351457 19.36176922 -17.31522656 20.68962066 -19 22 C-19.804375 22.804375 -20.60875 23.60875 -21.4375 24.4375 C-24.16637355 27.16637355 -27.00887264 29.56536145 -30 32 C-30 30.68 -30 29.36 -30 28 C-29.01 28 -28.02 28 -27 28 C-27.03122943 26.03243548 -27.03122943 26.03243548 -28 24 C-30.99615946 22.6954344 -30.99615946 22.6954344 -34 22 C-34 22.66 -34 23.32 -34 24 C-34.99 24 -35.98 24 -37 24 C-37 23.34 -37 22.68 -37 22 C-26.18482359 13.13853288 -12.46276745 6.23138372 0 0 Z " fill="#5D9E55" transform="translate(188,80)"/>
<path d="M0 0 C4.75 -0.125 4.75 -0.125 7 1 C7 2.65 7 4.3 7 6 C6.01 6 5.02 6 4 6 C4 7.65 4 9.3 4 11 C3.01 11.33 2.02 11.66 1 12 C1 12.66 1 13.32 1 14 C0.34 14 -0.32 14 -1 14 C-1 14.66 -1 15.32 -1 16 C-3.90600261 17.25664978 -5.79604584 18 -9 18 C-9 18.66 -9 19.32 -9 20 C-9.66 20.33 -10.32 20.66 -11 21 C-11.33 21.99 -11.66 22.98 -12 24 C-12.99 24 -13.98 24 -15 24 C-14 22 -13 20 -12 18 C-13.32 18 -14.64 18 -16 18 C-16 18.66 -16 19.32 -16 20 C-16.99 19.67 -17.98 19.34 -19 19 C-18.505 17.515 -18.505 17.515 -18 16 C-16.35 15.67 -14.7 15.34 -13 15 C-13.33 13.68 -13.66 12.36 -14 11 C-12.39125 10.443125 -12.39125 10.443125 -10.75 9.875 C-6.72177707 8.19386664 -5.28997835 5.68032235 -3 2 C-2.01 2 -1.02 2 0 2 C0 1.34 0 0.68 0 0 Z " fill="#539D49" transform="translate(154,102)"/>
<path d="M0 0 C0 0.66 0 1.32 0 2 C-1.32 2 -2.64 2 -4 2 C-4 2.66 -4 3.32 -4 4 C-7.96 4 -11.92 4 -16 4 C-16.33 4.99 -16.66 5.98 -17 7 C-16.34 6.67 -15.68 6.34 -15 6 C-13.19156337 5.85283458 -11.37668434 5.7789113 -9.5625 5.75 C-8.11037109 5.71132813 -8.11037109 5.71132813 -6.62890625 5.671875 C-4 6 -4 6 -2.15234375 7.515625 C-1.77207031 8.00546875 -1.39179688 8.4953125 -1 9 C-2.55847656 9.25523438 -2.55847656 9.25523438 -4.1484375 9.515625 C-11.48018275 10.77219392 -18.22469894 12.06646313 -24.984375 15.328125 C-27.3884828 16.12949427 -28.64278048 15.82821226 -31 15 C-31 14.67 -31 14.34 -31 14 C-29.35 14 -27.7 14 -26 14 C-26 13.34 -26 12.68 -26 12 C-25.01 11.34 -24.02 10.68 -23 10 C-22.67 9.67 -22.34 9.34 -22 9 C-25.63 8.67 -29.26 8.34 -33 8 C-33 8.66 -33 9.32 -33 10 C-34.98 10 -36.96 10 -39 10 C-36.89520749 7.89520749 -35.83710842 7.45270291 -33.0703125 6.5625 C-32.28035889 6.30807129 -31.49040527 6.05364258 -30.67651367 5.79150391 C-29.83451416 5.53030762 -28.99251465 5.26911133 -28.125 5 C-27.26817627 4.7323584 -26.41135254 4.4647168 -25.52856445 4.18896484 C-17.04749004 1.60530515 -8.8966884 -0.12987866 0 0 Z " fill="#6F9E69" transform="translate(190,46)"/>
<path d="M0 0 C0.495 0.99 0.495 0.99 1 2 C-0.32 2.33 -1.64 2.66 -3 3 C-1.4840625 3.2165625 -1.4840625 3.2165625 0.0625 3.4375 C3.70833333 3.95833333 7.35416667 4.47916667 11 5 C11.66 4.01 12.32 3.02 13 2 C14.9453125 1.70703125 14.9453125 1.70703125 17.125 1.8125 C18.40375 1.874375 19.6825 1.93625 21 2 C21 1.34 21 0.68 21 0 C22.32 0.33 23.64 0.66 25 1 C10.6957308 10.23344361 -6.56619757 12.38106781 -23.25 12.125 C-24.38824219 12.11597656 -25.52648437 12.10695312 -26.69921875 12.09765625 C-29.46637881 12.0744028 -32.2330676 12.04172868 -35 12 C-35 11.67 -35 11.34 -35 11 C-25.96278689 10.05757182 -17.07448253 9.88842849 -8 10 C-7.67 9.34 -7.34 8.68 -7 8 C-4.93359375 7.5859375 -4.93359375 7.5859375 -2.4375 7.375 C-1.61121094 7.30023438 -0.78492188 7.22546875 0.06640625 7.1484375 C1.02353516 7.07496094 1.02353516 7.07496094 2 7 C1.39671875 6.95101562 0.7934375 6.90203125 0.171875 6.8515625 C-1.02695313 6.73941406 -1.02695313 6.73941406 -2.25 6.625 C-3.03890625 6.55539063 -3.8278125 6.48578125 -4.640625 6.4140625 C-7.085877 5.98492887 -8.84836903 5.21399362 -11 4 C-11 3.67 -11 3.34 -11 3 C-15.29 2.67 -19.58 2.34 -24 2 C-24 1.67 -24 1.34 -24 1 C-21.125109 0.8312433 -18.25011104 0.66492885 -15.375 0.5 C-14.56675781 0.45230469 -13.75851563 0.40460938 -12.92578125 0.35546875 C-8.61012369 0.10986222 -4.32496331 -0.05598658 0 0 Z " fill="#6A9A64" transform="translate(141,178)"/>
<path d="M0 0 C2.21151604 3.31727407 3.33198453 5.292651 2.5625 9.25 C2.376875 9.8275 2.19125 10.405 2 11 C0.35 11.33 -1.3 11.66 -3 12 C-2.67 13.65 -2.34 15.3 -2 17 C-1.01 17 -0.02 17 1 17 C2.95773608 23.26475546 0.53432031 29.20726785 -2 35 C-2.66 35 -3.32 35 -4 35 C-4.66 35.66 -5.32 36.32 -6 37 C-7.485 37.495 -7.485 37.495 -9 38 C-9 36.35 -9 34.7 -9 33 C-8.34 33 -7.68 33 -7 33 C-6.9175 31.88625 -6.835 30.7725 -6.75 29.625 C-6 26 -6 26 -3.9375 24.5625 C-3.298125 24.376875 -2.65875 24.19125 -2 24 C-5.87871033 23.54781326 -5.87871033 23.54781326 -7.625 25.5 C-8.07875 25.995 -8.5325 26.49 -9 27 C-9.66 27 -10.32 27 -11 27 C-11 26.34 -11 25.68 -11 25 C-10.01 24.34 -9.02 23.68 -8 23 C-7.41518879 20.11404054 -7.41518879 20.11404054 -7.3125 16.875 C-7.24675781 15.77929688 -7.18101562 14.68359375 -7.11328125 13.5546875 C-7.07589844 12.71164063 -7.03851563 11.86859375 -7 11 C-6.01 11 -5.02 11 -4 11 C-3.67 9.68 -3.34 8.36 -3 7 C-2.34 7 -1.68 7 -1 7 C-0.67 4.69 -0.34 2.38 0 0 Z " fill="#5E9E56" transform="translate(201,109)"/>
<path d="M0 0 C0.66 0.33 1.32 0.66 2 1 C1.67 1.99 1.34 2.98 1 4 C0.34 4 -0.32 4 -1 4 C-1.33 4.99 -1.66 5.98 -2 7 C-5.0625 8.1875 -5.0625 8.1875 -8 9 C-7.67 10.65 -7.34 12.3 -7 14 C-8.98 14 -10.96 14 -13 14 C-13 14.99 -13 15.98 -13 17 C-12.34 17.33 -11.68 17.66 -11 18 C-11 17.34 -11 16.68 -11 16 C-9.68 16 -8.36 16 -7 16 C-8 18 -9 20 -10 22 C-9.01 22 -8.02 22 -7 22 C-6.67 20.68 -6.34 19.36 -6 18 C-5.34 18 -4.68 18 -4 18 C-4 17.34 -4 16.68 -4 16 C-2.35 15.67 -0.7 15.34 1 15 C-0.39985164 16.63885071 -1.80079312 18.27678227 -3.20703125 19.91015625 C-4.44135012 21.34885035 -5.66746951 22.79460656 -6.88671875 24.24609375 C-7.50160156 24.96925781 -8.11648437 25.69242188 -8.75 26.4375 C-9.60851562 27.45650391 -9.60851562 27.45650391 -10.484375 28.49609375 C-12 30 -12 30 -14 30 C-14.33 30.66 -14.66 31.32 -15 32 C-15 30.68 -15 29.36 -15 28 C-14.34 28 -13.68 28 -13 28 C-13 27.34 -13 26.68 -13 26 C-12.34 26 -11.68 26 -11 26 C-11 25.01 -11 24.02 -11 23 C-15.61507774 21.95785309 -15.61507774 21.95785309 -20 23 C-20.66 22.67 -21.32 22.34 -22 22 C-20.53033642 18.60140297 -18.61962486 16.35036291 -16 13.75 C-15.29875 13.04359375 -14.5975 12.3371875 -13.875 11.609375 C-12 10 -12 10 -10 10 C-9.67 9.01 -9.34 8.02 -9 7 C-6.93359375 5.17578125 -6.93359375 5.17578125 -4.4375 3.3125 C-3.61121094 2.68988281 -2.78492188 2.06726563 -1.93359375 1.42578125 C-1.29550781 0.95527344 -0.65742188 0.48476562 0 0 Z " fill="#609D57" transform="translate(149,104)"/>
<path d="M0 0 C2.97 0 5.94 0 9 0 C9 0.66 9 1.32 9 2 C9.680625 1.814375 10.36125 1.62875 11.0625 1.4375 C14.64340746 0.90417336 17.47456499 1.2017883 21 2 C21.66 2.99 22.32 3.98 23 5 C22 6 22 6 18.9375 6.0625 C17.968125 6.041875 16.99875 6.02125 16 6 C16 6.66 16 7.32 16 8 C12.7 8 9.4 8 6 8 C6 7.34 6 6.68 6 6 C4.80375 6.165 3.6075 6.33 2.375 6.5 C-4.07041997 7.23219971 -10.52295265 7.08292095 -17 7 C-16.67 5.68 -16.34 4.36 -16 3 C-12.04 3.33 -8.08 3.66 -4 4 C-4 3.34 -4 2.68 -4 2 C-2.68 2 -1.36 2 0 2 C0 1.34 0 0.68 0 0 Z " fill="#4F9D45" transform="translate(190,46)"/>
<path d="M0 0 C0.33 1.32 0.66 2.64 1 4 C-1.31 4.33 -3.62 4.66 -6 5 C-5.67 5.66 -5.34 6.32 -5 7 C-3.10466658 7.46523063 -3.10466658 7.46523063 -0.9375 7.625 C0.361875 7.74875 1.66125 7.8725 3 8 C3 7.34 3 6.68 3 6 C4.65 5.67 6.3 5.34 8 5 C8 4.67 8 4.34 8 4 C8.95712891 3.90912109 8.95712891 3.90912109 9.93359375 3.81640625 C10.75988281 3.73261719 11.58617188 3.64882812 12.4375 3.5625 C13.26121094 3.48128906 14.08492187 3.40007812 14.93359375 3.31640625 C16.98662025 3.21069185 16.98662025 3.21069185 18 2 C20.18639453 1.92741054 22.37500389 1.91626217 24.5625 1.9375 C26.35880859 1.95103516 26.35880859 1.95103516 28.19140625 1.96484375 C29.11824219 1.97644531 30.04507813 1.98804688 31 2 C31 2.33 31 2.66 31 3 C30.01902344 3.15855469 29.03804687 3.31710938 28.02734375 3.48046875 C15.75279227 5.56479763 4.42302976 8.99423919 -7 14 C-7 13.34 -7 12.68 -7 12 C-6.34 12 -5.68 12 -5 12 C-5 11.34 -5 10.68 -5 10 C-6.9914056 9.61866701 -8.99279077 9.28674418 -11 9 C-11.33 9.33 -11.66 9.66 -12 10 C-13.66617115 10.04063832 -15.33388095 10.042721 -17 10 C-17 9.01 -17 8.02 -17 7 C-14.54379149 5.82866942 -12.08525083 4.66278278 -9.625 3.5 C-8.92632812 3.16613281 -8.22765625 2.83226562 -7.5078125 2.48828125 C-2.2265625 0 -2.2265625 0 0 0 Z " fill="#679B60" transform="translate(75,188)"/>
<path d="M0 0 C2.79593783 1.39796892 2.95173777 3.13474989 4 6 C4.33 6.66 4.66 7.32 5 8 C4.01 8.99 3.02 9.98 2 11 C2.99 11.33 3.98 11.66 5 12 C5 11.34 5 10.68 5 10 C5.99 10 6.98 10 8 10 C8.12375 9.38125 8.2475 8.7625 8.375 8.125 C9 6 9 6 11 4 C13.125 4.375 13.125 4.375 15 5 C10.32969393 10.07576672 5.2821083 14.98069214 -1 18 C-1.99 17.67 -2.98 17.34 -4 17 C-3.01 16.67 -2.02 16.34 -1 16 C-1.27617533 14.05925139 -1.27617533 14.05925139 -2 12 C-2.99 11.34 -3.98 10.68 -5 10 C-5.33 10.66 -5.66 11.32 -6 12 C-8.64 12 -11.28 12 -14 12 C-12.33333333 10.66666667 -10.66666667 9.33333333 -9 8 C-8.113125 7.2575 -7.22625 6.515 -6.3125 5.75 C-4 4 -4 4 -2 4 C-2 3.34 -2 2.68 -2 2 C-1.34 2 -0.68 2 0 2 C0 1.34 0 0.68 0 0 Z " fill="#579C4E" transform="translate(169,160)"/>
<path d="M0 0 C0.66 0.33 1.32 0.66 2 1 C1.67 1.99 1.34 2.98 1 4 C3.39719432 4.67958603 3.39719432 4.67958603 6 5 C6.66 4.34 7.32 3.68 8 3 C7.67 4.65 7.34 6.3 7 8 C8.65 8 10.3 8 12 8 C12 7.34 12 6.68 12 6 C13.32 6.33 14.64 6.66 16 7 C8.11730523 10.92230706 -0.13928062 14.33176826 -9 12 C-8.52379711 7.62346871 -7.33100111 5.93461995 -3.9375 3.1875 C-3.20402344 2.58292969 -2.47054687 1.97835937 -1.71484375 1.35546875 C-1.14894531 0.90816406 -0.58304688 0.46085937 0 0 Z " fill="#629F59" transform="translate(119,72)"/>
<path d="M0 0 C0 0.99 0 1.98 0 3 C2.71549154 5.30671915 2.71549154 5.30671915 5.1875 4.625 C5.785625 4.41875 6.38375 4.2125 7 4 C7 4.33 7 4.66 7 5 C9.97 5.495 9.97 5.495 13 6 C10.0068654 9.36727643 6.71685617 11.52855688 2.8984375 13.828125 C0.87187912 15.0359682 0.87187912 15.0359682 -1.375 16.8125 C-3 18 -3 18 -5 18 C-5 16.68 -5 15.36 -5 14 C-3.68 13.67 -2.36 13.34 -1 13 C-1.99 12.34 -2.98 11.68 -4 11 C-3.34 9.35 -2.68 7.7 -2 6 C-3.98 6 -5.96 6 -8 6 C-8 6.66 -8 7.32 -8 8 C-9.98 8.33 -11.96 8.66 -14 9 C-11.48367951 6.14015453 -8.66114447 4.58531178 -5.3125 2.8125 C-4.31863281 2.28269531 -3.32476562 1.75289062 -2.30078125 1.20703125 C-1.54152344 0.80871094 -0.78226563 0.41039062 0 0 Z " fill="#6A9E63" transform="translate(140,60)"/>
<path d="M0 0 C12.13819904 19.78832449 2.10420973 57.81885302 -2 79 C-2.33 79 -2.66 79 -3 79 C-2.67 72.07 -2.34 65.14 -2 58 C-1.34 58 -0.68 58 0 58 C-0.01160156 57.01257813 -0.02320313 56.02515625 -0.03515625 55.0078125 C-0.04417969 53.72648437 -0.05320313 52.44515625 -0.0625 51.125 C-0.07410156 49.84882812 -0.08570313 48.57265625 -0.09765625 47.2578125 C0 44 0 44 1 42 C1.09658497 40.28078756 1.13075525 38.55785964 1.1328125 36.8359375 C1.13410156 35.79566406 1.13539062 34.75539062 1.13671875 33.68359375 C1.13285156 32.59175781 1.12898438 31.49992187 1.125 30.375 C1.12886719 29.30636719 1.13273437 28.23773438 1.13671875 27.13671875 C1.12956042 21.31700026 0.80029067 15.75957222 0 10 C-0.06027831 8.16753945 -0.08796215 6.33327489 -0.0625 4.5 C-0.05347656 3.6440625 -0.04445312 2.788125 -0.03515625 1.90625 C-0.02355469 1.2771875 -0.01195312 0.648125 0 0 Z " fill="#7C9E78" transform="translate(55,78)"/>
<path d="M0 0 C0 0.99 0 1.98 0 3 C-0.66 3 -1.32 3 -2 3 C-2 3.66 -2 4.32 -2 5 C-2.66 5 -3.32 5 -4 5 C-4 6.32 -4 7.64 -4 9 C-7.58978789 10.55234071 -10.10502681 11 -14 11 C-14.33 11.66 -14.66 12.32 -15 13 C-15.99 13 -16.98 13 -18 13 C-18.3125 10.6875 -18.3125 10.6875 -18 8 C-16.33720673 6.9935725 -14.67016516 5.99414593 -13 5 C-12.32136945 3.0040278 -11.65358081 1.00431449 -11 -1 C-7.404466 -3.13068681 -3.71304 -1.21387846 0 0 Z " fill="#4E9E44" transform="translate(138,127)"/>
<path d="M0 0 C5 0 5 0 9 3 C8.34 6.63 7.68 10.26 7 14 C6.01 14 5.02 14 4 14 C3.67 14.66 3.34 15.32 3 16 C0.35139573 16.59355614 -2.29197322 16.74209269 -5 17 C-4.67 14.69 -4.34 12.38 -4 10 C-2.68 10 -1.36 10 0 10 C0 6.7 0 3.4 0 0 Z " fill="#4E9E43" transform="translate(34,68)"/>
<path d="M0 0 C0.625 1.8125 0.625 1.8125 1 4 C0.01 5.485 0.01 5.485 -1 7 C-1.103125 7.639375 -1.20625 8.27875 -1.3125 8.9375 C-2.32886056 11.98658169 -4.45134329 13.17019519 -7 15 C-6.814375 15.886875 -6.62875 16.77375 -6.4375 17.6875 C-6.01957516 20.85178811 -6.19222258 22.94839642 -7 26 C-7.66 26 -8.32 26 -9 26 C-9.495 23.525 -9.495 23.525 -10 21 C-10.556875 21.680625 -10.556875 21.680625 -11.125 22.375 C-13.53058529 24.45984059 -15.99880775 25.02135035 -19 26 C-19.33 26.66 -19.66 27.32 -20 28 C-21.8125 29.1875 -21.8125 29.1875 -24 30 C-26.13671875 29.55078125 -26.13671875 29.55078125 -28 29 C-27.32195312 28.52691406 -26.64390625 28.05382812 -25.9453125 27.56640625 C-14.7037225 19.57896072 -6.35219812 12.43095726 0 0 Z " fill="#569A4D" transform="translate(103,158)"/>
<path d="M0 0 C-2.75605908 3.14550221 -6.23100824 5.13625106 -9.75 7.3125 C-13.81725349 9.85707644 -17.64066261 12.36801169 -21.1875 15.625 C-22.115625 16.40875 -23.04375 17.1925 -24 18 C-24.99 17.67 -25.98 17.34 -27 17 C-26.67 16.01 -26.34 15.02 -26 14 C-27.32 13.67 -28.64 13.34 -30 13 C-29.34 12.01 -28.68 11.02 -28 10 C-27.34 10 -26.68 10 -26 10 C-25.67 9.01 -25.34 8.02 -25 7 C-23.68 7.33 -22.36 7.66 -21 8 C-21 8.66 -21 9.32 -21 10 C-19.68 10 -18.36 10 -17 10 C-17 9.34 -17 8.68 -17 8 C-16.01 8 -15.02 8 -14 8 C-14 7.34 -14 6.68 -14 6 C-13.01 6 -12.02 6 -11 6 C-11 5.34 -11 4.68 -11 4 C-7.54424257 0.54424257 -4.86390948 -0.27021719 0 0 Z " fill="#669B5F" transform="translate(67,202)"/>
<path d="M0 0 C1.32 0.33 2.64 0.66 4 1 C4.33 3.97 4.66 6.94 5 10 C5.66 10 6.32 10 7 10 C7 13.96 7 17.92 7 22 C6.01 22 5.02 22 4 22 C3.34 20.02 2.68 18.04 2 16 C0.68 16.33 -0.64 16.66 -2 17 C-1.67 15.35 -1.34 13.7 -1 12 C-0.34 12 0.32 12 1 12 C1.042721 10.33388095 1.04063832 8.66617115 1 7 C0.67 6.67 0.34 6.34 0 6 C-0.04080783 4.00041636 -0.04254356 1.99954746 0 0 Z " fill="#4D9E43" transform="translate(48,66)"/>
<path d="M0 0 C1.98 0.66 3.96 1.32 6 2 C6.33 1.34 6.66 0.68 7 0 C8.98 0.66 10.96 1.32 13 2 C13 2.66 13 3.32 13 4 C12.34 4 11.68 4 11 4 C11 4.66 11 5.32 11 6 C9.35 6.33 7.7 6.66 6 7 C6 7.33 6 7.66 6 8 C3.36 8 0.72 8 -2 8 C-2.33 8.66 -2.66 9.32 -3 10 C-3.66 9.01 -4.32 8.02 -5 7 C-5.99 6.67 -6.98 6.34 -8 6 C-8 5.34 -8 4.68 -8 4 C-6.865625 3.525625 -5.73125 3.05125 -4.5625 2.5625 C-1.24259834 1.36377917 -1.24259834 1.36377917 0 0 Z " fill="#509D46" transform="translate(57,196)"/>
<path d="M0 0 C0 0.66 0 1.32 0 2 C-2 3.625 -2 3.625 -4 5 C-3.01 5.66 -2.02 6.32 -1 7 C-1.66 8.65 -2.32 10.3 -3 12 C-3.969375 11.855625 -4.93875 11.71125 -5.9375 11.5625 C-10.28052169 10.93952558 -14.63765234 10.46492141 -19 10 C-17 8 -17 8 -14 7 C-14 6.34 -14 5.68 -14 5 C-12.04350603 4.16235732 -10.08474444 3.33000941 -8.125 2.5 C-7.03445312 2.0359375 -5.94390625 1.571875 -4.8203125 1.09375 C-2 0 -2 0 0 0 Z " fill="#669E5E" transform="translate(155,172)"/>
<path d="M0 0 C0.66 0 1.32 0 2 0 C2 0.66 2 1.32 2 2 C2.66 2.33 3.32 2.66 4 3 C6.125 4.375 6.125 4.375 8 7 C8.35084422 10.68918018 8.2293246 14.30532588 8 18 C8.66 18.33 9.32 18.66 10 19 C8.35 19.33 6.7 19.66 5 20 C4.01 17.36 3.02 14.72 2 12 C1.34 12 0.68 12 0 12 C-0.19573608 10.56359829 -0.38127816 9.12580496 -0.5625 7.6875 C-0.66691406 6.88699219 -0.77132812 6.08648437 -0.87890625 5.26171875 C-1 3 -1 3 0 0 Z " fill="#4C9F42" transform="translate(94,80)"/>
<path d="M0 0 C0.66 0 1.32 0 2 0 C2.02914348 4.20831868 2.04684712 8.41661122 2.0625 12.625 C2.07087891 13.81480469 2.07925781 15.00460938 2.08789062 16.23046875 C2.09111328 17.38417969 2.09433594 18.53789063 2.09765625 19.7265625 C2.10289307 20.78439941 2.10812988 21.84223633 2.11352539 22.93212891 C1.99875578 26.03362346 1.57696282 28.95347657 1 32 C0.34 32 -0.32 32 -1 32 C-1.50435694 30.0636296 -2.00333874 28.12585854 -2.5 26.1875 C-2.7784375 25.10855469 -3.056875 24.02960938 -3.34375 22.91796875 C-4 20 -4 20 -4 17 C-2.68 16.67 -1.36 16.34 0 16 C0 10.72 0 5.44 0 0 Z " fill="#4C9E42" transform="translate(104,104)"/>
<path d="M0 0 C0.33 0 0.66 0 1 0 C1.1953125 6.0546875 1.1953125 6.0546875 1 8 C0.34 8.66 -0.32 9.32 -1 10 C-1 11.9193839 -0.99372155 13.83925218 -0.9375 15.7578125 C-1.03768142 19.35182107 -2.01493443 22.5522705 -3 26 C-3.66 26 -4.32 26 -5 26 C-5.66 33.59 -6.32 41.18 -7 49 C-7.33 49 -7.66 49 -8 49 C-8.62930537 31.68244848 -5.56912494 16.35517718 0 0 Z " fill="#76A070" transform="translate(23,92)"/>
<path d="M0 0 C0.33 0 0.66 0 1 0 C1.06058594 0.77085938 1.12117188 1.54171875 1.18359375 2.3359375 C1.26738281 3.33882812 1.35117187 4.34171875 1.4375 5.375 C1.51871094 6.37273437 1.59992187 7.37046875 1.68359375 8.3984375 C1.84965626 10.97927613 1.84965626 10.97927613 3 13 C2.39421747 15.01927511 1.73080266 17.02253397 1 19 C1.66 19 2.32 19 3 19 C3.125 24.75 3.125 24.75 2 27 C1.34 27 0.68 27 0 27 C-1.60725635 23.78548731 -1.05748185 20.56387464 -1 17 C-1.66 17 -2.32 17 -3 17 C-3 13.7 -3 10.4 -3 7 C-2.34 7 -1.68 7 -1 7 C-0.67 4.69 -0.34 2.38 0 0 Z " fill="#4E9E44" transform="translate(19,125)"/>
<path d="M0 0 C0.33 0 0.66 0 1 0 C1.0270817 2.72923388 1.04687847 5.45819637 1.0625 8.1875 C1.07087891 8.95642578 1.07925781 9.72535156 1.08789062 10.51757812 C1.10507476 14.52148101 0.79809361 18.06705222 0 22 C0.33 22.99 0.66 23.98 1 25 C0.34 25.33 -0.32 25.66 -1 26 C-1.46727852 27.83528863 -1.46727852 27.83528863 -1.6328125 30.03515625 C-1.75849609 31.24848633 -1.75849609 31.24848633 -1.88671875 32.48632812 C-1.96535156 33.33646484 -2.04398438 34.18660156 -2.125 35.0625 C-2.21136719 35.91650391 -2.29773437 36.77050781 -2.38671875 37.65039062 C-2.59947228 39.76610633 -2.80079953 41.88296524 -3 44 C-1.02 44 0.96 44 3 44 C2.67 44.66 2.34 45.32 2 46 C-0.32156597 46.40729228 -2.6568787 46.74438677 -5 47 C-5.1077588 40.81195098 -4.75974188 34.93263375 -3.90625 28.80859375 C-3.73977966 27.56252098 -3.73977966 27.56252098 -3.56994629 26.29127502 C-3.21882119 23.67256987 -2.8595614 21.05505871 -2.5 18.4375 C-2.25857271 16.64785947 -2.01768238 14.85814643 -1.77734375 13.06835938 C-1.19109296 8.71137749 -0.59755078 4.35544589 0 0 Z " fill="#749670" transform="translate(65,136)"/>
<path d="M0 0 C2.00720923 0.28674418 4.0085944 0.61866701 6 1 C4.99086935 4.53195726 3.96434493 7.0499171 1.8125 10.0625 C-0.24067419 12.81477895 -0.24067419 12.81477895 0 15.75 C0.81926859 18.15201555 0.81926859 18.15201555 3.0625 19.3125 C3.701875 19.539375 4.34125 19.76625 5 20 C3.02 20.33 1.04 20.66 -1 21 C-2.82836805 18.25744792 -4.10776078 16.13747485 -3.7890625 12.7734375 C-3.26225551 10.49060721 -2.6506419 8.25030924 -2 6 C-1.814375 5.01 -1.62875 4.02 -1.4375 3 C-1 1 -1 1 0 0 Z " fill="#649D5C" transform="translate(109,159)"/>
<path d="M0 0 C2.21151604 3.31727407 3.33198453 5.292651 2.5625 9.25 C2.376875 9.8275 2.19125 10.405 2 11 C0.35 11.33 -1.3 11.66 -3 12 C-2.67 14.97 -2.34 17.94 -2 21 C-2.66 20.67 -3.32 20.34 -4 20 C-4.4125 20.78375 -4.825 21.5675 -5.25 22.375 C-7.0392777 25.05891656 -8.04988139 25.88098949 -11 27 C-11 26.34 -11 25.68 -11 25 C-10.01 24.34 -9.02 23.68 -8 23 C-7.41518879 20.11404054 -7.41518879 20.11404054 -7.3125 16.875 C-7.24675781 15.77929688 -7.18101562 14.68359375 -7.11328125 13.5546875 C-7.07589844 12.71164063 -7.03851563 11.86859375 -7 11 C-6.01 11 -5.02 11 -4 11 C-3.67 9.68 -3.34 8.36 -3 7 C-2.34 7 -1.68 7 -1 7 C-0.67 4.69 -0.34 2.38 0 0 Z " fill="#4C9F42" transform="translate(201,109)"/>
<path d="M0 0 C0 0.99 0 1.98 0 3 C-3.64125692 4.49934109 -7.24725576 5.74908525 -11 7 C-10.67 12.61 -10.34 18.22 -10 24 C-9.34 23.01 -8.68 22.02 -8 21 C-7.34 21 -6.68 21 -6 21 C-6 20.34 -6 19.68 -6 19 C-5.01 19 -4.02 19 -3 19 C-3 18.34 -3 17.68 -3 17 C-2.01 17 -1.02 17 0 17 C0 19 0 19 -1.609375 20.62109375 C-2.31578125 21.22050781 -3.0221875 21.81992188 -3.75 22.4375 C-4.79414062 23.33275391 -4.79414062 23.33275391 -5.859375 24.24609375 C-7.8669308 25.89097068 -9.91915592 27.44971127 -12 29 C-13.63905057 8.17649288 -13.63905057 8.17649288 -9.84375 3.13671875 C-6.59318619 1.25456758 -3.78864719 0 0 0 Z " fill="#93A091" transform="translate(41,203)"/>
<path d="M0 0 C5.10473798 0.85078966 6.90029804 1.22790555 10.9375 3.8125 C11.78957031 4.34746094 12.64164063 4.88242187 13.51953125 5.43359375 C14.33808594 5.95050781 15.15664063 6.46742187 16 7 C18.32103989 8.3563448 20.65961372 9.67717297 23 11 C23 11.33 23 11.66 23 12 C20.125 12.625 20.125 12.625 17 13 C16.34 12.34 15.68 11.68 15 11 C15 10.34 15 9.68 15 9 C14.01 8.67 13.02 8.34 12 8 C12 7.34 12 6.68 12 6 C10.68 6 9.36 6 8 6 C8 5.34 8 4.68 8 4 C6.35 4 4.7 4 3 4 C3 8.62 3 13.24 3 18 C2.67 18 2.34 18 2 18 C1.34 12.06 0.68 6.12 0 0 Z " fill="#789974" transform="translate(38,32)"/>
<path d="M0 0 C-0.33 0.99 -0.66 1.98 -1 3 C-0.60602665 5.63804589 -0.60602665 5.63804589 0 8 C1.65 7.67 3.3 7.34 5 7 C5.33 5.35 5.66 3.7 6 2 C7.32 2.33 8.64 2.66 10 3 C6.37924984 7.97853147 1.58084661 13.2095767 -4 16 C-4 14.68 -4 13.36 -4 12 C-3.01 12 -2.02 12 -1 12 C-1.03122943 10.03243548 -1.03122943 10.03243548 -2 8 C-4.99615946 6.6954344 -4.99615946 6.6954344 -8 6 C-8 6.66 -8 7.32 -8 8 C-8.99 8 -9.98 8 -11 8 C-11 7.34 -11 6.68 -11 6 C-9.1015625 4.4921875 -9.1015625 4.4921875 -6.625 2.875 C-5.81289062 2.33617188 -5.00078125 1.79734375 -4.1640625 1.2421875 C-2 0 -2 0 0 0 Z " fill="#739A6E" transform="translate(162,96)"/>
<path d="M0 0 C0.99 0 1.98 0 3 0 C4.0326802 2.78823655 4.04509293 3.8677274 3.0625 6.75 C2.711875 7.4925 2.36125 8.235 2 9 C3.32 9.66 4.64 10.32 6 11 C6 11.66 6 12.32 6 13 C5.34 13 4.68 13 4 13 C4 13.66 4 14.32 4 15 C3.01 14.67 2.02 14.34 1 14 C0.67 14.66 0.34 15.32 0 16 C-0.66 16 -1.32 16 -2 16 C-2.33 16.99 -2.66 17.98 -3 19 C-3.33 19 -3.66 19 -4 19 C-4 17.35 -4 15.7 -4 14 C-3.34 14 -2.68 14 -2 14 C-2.04125 13.175 -2.0825 12.35 -2.125 11.5 C-1.97786007 7.38008185 -1.09476605 3.96852693 0 0 Z " fill="#4C9F41" transform="translate(22,104)"/>
<path d="M0 0 C1.65 0 3.3 0 5 0 C5 0.66 5 1.32 5 2 C3.68 2 2.36 2 1 2 C1.33386719 2.56976563 1.66773438 3.13953125 2.01171875 3.7265625 C3.65813945 7.51398086 2.85943352 11.04937819 2 15 C1.0337499 17.01652194 0.03291676 19.01679982 -1 21 C-1.50995318 23.34259744 -1.92645315 25.67533853 -2.27734375 28.046875 C-3 30 -3 30 -5.06640625 31.265625 C-5.70449219 31.50796875 -6.34257813 31.7503125 -7 32 C-6.80664062 31.45472656 -6.61328125 30.90945312 -6.4140625 30.34765625 C-4.55239547 24.9561948 -3.12344334 19.59078274 -2 14 C-1.34 14 -0.68 14 0 14 C0 9.38 0 4.76 0 0 Z " fill="#529D47" transform="translate(41,36)"/>
<path d="M0 0 C0.66 0.66 1.32 1.32 2 2 C1.87029831 4.87407146 1.62553916 7.59513801 1.25 10.4375 C1.11851563 11.60249023 1.11851563 11.60249023 0.984375 12.79101562 C0.50495288 16.6563565 0.22255734 18.66616399 -2 22 C-6.98791571 21.52496041 -10.0232741 20.0298864 -14 17 C-14 16.67 -14 16.34 -14 16 C-12.35 16 -10.7 16 -9 16 C-9 16.66 -9 17.32 -9 18 C-6.69 18 -4.38 18 -2 18 C-1.93941406 17.03578125 -1.87882812 16.0715625 -1.81640625 15.078125 C-1.73261719 13.81484375 -1.64882813 12.5515625 -1.5625 11.25 C-1.48128906 9.99703125 -1.40007813 8.7440625 -1.31640625 7.453125 C-1.07484478 4.81682447 -0.75716066 2.51962706 0 0 Z " fill="#7B9E77" transform="translate(50,158)"/>
<path d="M0 0 C0.91058531 3.07322544 1.08886184 5.80097361 1 9 C0.34 9 -0.32 9 -1 9 C-1 9.66 -1 10.32 -1 11 C-1.66 11 -2.32 11 -3 11 C-3.66 11.66 -4.32 12.32 -5 13 C-5 12.34 -5 11.68 -5 11 C-5.99 11 -6.98 11 -8 11 C-8.33 12.32 -8.66 13.64 -9 15 C-9.97608217 12.07175348 -10.08226668 10.04386724 -10 7 C-9.34 7 -8.68 7 -8 7 C-7.67 6.34 -7.34 5.68 -7 5 C-6.360625 4.855625 -5.72125 4.71125 -5.0625 4.5625 C-2.61789145 4.13834965 -2.61789145 4.13834965 -1 1 C-0.67 0.67 -0.34 0.34 0 0 Z " fill="#4D9E43" transform="translate(212,89)"/>
<path d="M0 0 C1.4540625 0.0309375 1.4540625 0.0309375 2.9375 0.0625 C2.9375 1.3825 2.9375 2.7025 2.9375 4.0625 C2.2775 4.7225 1.6175 5.3825 0.9375 6.0625 C-0.0525 6.0625 -1.0425 6.0625 -2.0625 6.0625 C-2.0625 7.3825 -2.0625 8.7025 -2.0625 10.0625 C-4.0425 10.7225 -6.0225 11.3825 -8.0625 12.0625 C-8.0625 10.0625 -8.0625 8.0625 -8.0625 6.0625 C-7.4025 6.0625 -6.7425 6.0625 -6.0625 6.0625 C-5.753125 5.258125 -5.44375 4.45375 -5.125 3.625 C-3.65286145 0.07454819 -3.65286145 0.07454819 0 0 Z " fill="#4C9F42" transform="translate(91.0625,151.9375)"/>
<path d="M0 0 C4.62 0 9.24 0 14 0 C14.9630643 5.34062927 14.9630643 5.34062927 15 8 C13.625 9.8125 13.625 9.8125 12 11 C11.67 11.99 11.34 12.98 11 14 C10.01 14.66 9.02 15.32 8 16 C7.505 17.0209375 7.505 17.0209375 7 18.0625 C6 20 6 20 3 21 C4.44202476 16.84848662 6.5010438 13.70021555 9.125 10.1875 C9.84945312 9.21167969 10.57390625 8.23585938 11.3203125 7.23046875 C12.15175781 6.12638672 12.15175781 6.12638672 13 5 C10.47519307 2.47519307 8.86176966 2.44261367 5.375 1.875 C3.87066406 1.62363281 3.87066406 1.62363281 2.3359375 1.3671875 C1.56507813 1.24601562 0.79421875 1.12484375 0 1 C0 0.67 0 0.34 0 0 Z " fill="#7D9E79" transform="translate(208,56)"/>
<path d="M0 0 C2.31 0.33 4.62 0.66 7 1 C6.67 2.65 6.34 4.3 6 6 C5.01 6 4.02 6 3 6 C2.67 6.66 2.34 7.32 2 8 C1.34 7.67 0.68 7.34 0 7 C0 7.66 0 8.32 0 9 C-0.66 9 -1.32 9 -2 9 C-1.67 10.65 -1.34 12.3 -1 14 C-2.9375 13.625 -2.9375 13.625 -5 13 C-5.33 12.34 -5.66 11.68 -6 11 C-5.67 10.01 -5.34 9.02 -5 8 C-4.01 7.67 -3.02 7.34 -2 7 C-0.77030122 3.48809191 -0.77030122 3.48809191 0 0 Z " fill="#4D9E43" transform="translate(235,52)"/>
<path d="M0 0 C-0.66 1.32 -1.32 2.64 -2 4 C-1.34 4.33 -0.68 4.66 0 5 C-6.625 5.125 -6.625 5.125 -10 4 C-10.33 4.66 -10.66 5.32 -11 6 C-11 5.01 -11 4.02 -11 3 C-11.99 2.67 -12.98 2.34 -14 2 C-13.34 1.67 -12.68 1.34 -12 1 C-12 0.34 -12 -0.32 -12 -1 C-7.28400182 -1.92470553 -4.32734391 -2.22923777 0 0 Z " fill="#4E9D44" transform="translate(153,61)"/>
<path d="M0 0 C1.79244141 0.01740234 1.79244141 0.01740234 3.62109375 0.03515625 C5.41740234 0.04869141 5.41740234 0.04869141 7.25 0.0625 C8.17683594 0.07410156 9.10367188 0.08570313 10.05859375 0.09765625 C10.05859375 0.42765625 10.05859375 0.75765625 10.05859375 1.09765625 C9.08921875 1.25621094 8.11984375 1.41476563 7.12109375 1.578125 C-2.87280123 3.29111278 -12.33620796 5.86612012 -21.94140625 9.09765625 C-21.94140625 8.10765625 -21.94140625 7.11765625 -21.94140625 6.09765625 C-20.62140625 6.09765625 -19.30140625 6.09765625 -17.94140625 6.09765625 C-17.94140625 5.43765625 -17.94140625 4.77765625 -17.94140625 4.09765625 C-16.29140625 3.76765625 -14.64140625 3.43765625 -12.94140625 3.09765625 C-12.94140625 2.76765625 -12.94140625 2.43765625 -12.94140625 2.09765625 C-11.98427734 2.00677734 -11.98427734 2.00677734 -11.0078125 1.9140625 C-10.18152344 1.83027344 -9.35523437 1.74648437 -8.50390625 1.66015625 C-7.68019531 1.57894531 -6.85648438 1.49773437 -6.0078125 1.4140625 C-3.11261782 0.97075292 -3.23865892 0.1075252 0 0 Z " fill="#809E7C" transform="translate(95.94140625,189.90234375)"/>
<path d="M0 0 C0.64208984 1.77050781 0.64208984 1.77050781 1 4 C0.11962891 5.83105469 0.11962891 5.83105469 -1.2734375 7.671875 C-1.7684375 8.33574219 -2.2634375 8.99960937 -2.7734375 9.68359375 C-3.30195313 10.36550781 -3.83046875 11.04742187 -4.375 11.75 C-4.89578125 12.44738281 -5.4165625 13.14476563 -5.953125 13.86328125 C-8.7080982 17.51040898 -8.7080982 17.51040898 -10 19 C-10.33 19 -10.66 19 -11 19 C-11 17.35 -11 15.7 -11 14 C-10.01 13.67 -9.02 13.34 -8 13 C-8.33 11.35 -8.66 9.7 -9 8 C-8.34 8 -7.68 8 -7 8 C-7 7.34 -7 6.68 -7 6 C-5.02 5.67 -3.04 5.34 -1 5 C-1.33 3.68 -1.66 2.36 -2 1 C-1.34 0.67 -0.68 0.34 0 0 Z " fill="#609C58" transform="translate(242,53)"/>
<path d="M0 0 C1.4606285 2.64738916 2 3.89448334 2 7 C1.01 7.66 0.02 8.32 -1 9 C-1.36416047 11.43693311 -1.36416047 11.43693311 -1.1875 14.125 C-1.16042969 15.03507812 -1.13335937 15.94515625 -1.10546875 16.8828125 C-1.07066406 17.58148438 -1.03585938 18.28015625 -1 19 C-1.66 19.33 -2.32 19.66 -3 20 C-3.33 20.99 -3.66 21.98 -4 23 C-4.99 23 -5.98 23 -7 23 C-6.33654156 17.74272175 -4.74419696 13.07140932 -2.9375 8.125 C-2.65583984 7.34125 -2.37417969 6.5575 -2.08398438 5.75 C-1.39386218 3.83169424 -0.69755684 1.91561481 0 0 Z " fill="#7F9F7B" transform="translate(201,97)"/>
<path d="M0 0 C0.33 0.66 0.66 1.32 1 2 C0.67 2.66 0.34 3.32 0 4 C2.1462026 3.85970581 4.29196218 3.71261836 6.4375 3.5625 C8.22994141 3.44068359 8.22994141 3.44068359 10.05859375 3.31640625 C12.88570244 3.32343886 12.88570244 3.32343886 14 2 C15.66617115 1.95936168 17.33388095 1.957279 19 2 C19 1.34 19 0.68 19 0 C20.32 0.33 21.64 0.66 23 1 C15.11730523 4.92230706 6.86071938 8.33176826 -2 6 C-1.125 1.125 -1.125 1.125 0 0 Z " fill="#779973" transform="translate(112,78)"/>
<path d="M0 0 C0.6875 1.8125 0.6875 1.8125 1 4 C-0.4375 5.5625 -0.4375 5.5625 -2 7 C-2 7.99 -2 8.98 -2 10 C-2.66 10 -3.32 10 -4 10 C-3.67 11.32 -3.34 12.64 -3 14 C-7.5 18 -7.5 18 -12 18 C-12 16 -12 16 -10.0625 14 C-9.381875 13.34 -8.70125 12.68 -8 12 C-7.67 11.34 -7.34 10.68 -7 10 C-6.34 10 -5.68 10 -5 10 C-4.731875 9.278125 -4.46375 8.55625 -4.1875 7.8125 C-3.01017502 5.02409874 -1.60854116 2.55904276 0 0 Z " fill="#6A9C63" transform="translate(183,142)"/>
<path d="M0 0 C2.13181214 3.74287627 1.95685425 5.78984129 1 10 C-0.32 10 -1.64 10 -3 10 C-3 11.32 -3 12.64 -3 14 C-3.66 14 -4.32 14 -5 14 C-5 15.98 -5 17.96 -5 20 C-5.66 20 -6.32 20 -7 20 C-7.33 21.32 -7.66 22.64 -8 24 C-9.22444576 20.32666271 -8.65749402 19.5683084 -7.12890625 16.11328125 C-6.51499023 14.7065918 -6.51499023 14.7065918 -5.88867188 13.27148438 C-5.45103516 12.29501953 -5.01339844 11.31855469 -4.5625 10.3125 C-4.12873047 9.32443359 -3.69496094 8.33636719 -3.24804688 7.31835938 C-2.17390467 4.87498095 -1.09095482 2.43590696 0 0 Z " fill="#7B9E77" transform="translate(33,68)"/>
<path d="M0 0 C0.66 0.33 1.32 0.66 2 1 C1.67 1.99 1.34 2.98 1 4 C0.34 4 -0.32 4 -1 4 C-1.33 4.99 -1.66 5.98 -2 7 C-5.0625 8.1875 -5.0625 8.1875 -8 9 C-7.67 10.65 -7.34 12.3 -7 14 C-9.64 14 -12.28 14 -15 14 C-13.625 12 -13.625 12 -12 10 C-11.34 10 -10.68 10 -10 10 C-9.67 9.01 -9.34 8.02 -9 7 C-6.93359375 5.17578125 -6.93359375 5.17578125 -4.4375 3.3125 C-3.61121094 2.68988281 -2.78492188 2.06726563 -1.93359375 1.42578125 C-1.29550781 0.95527344 -0.65742188 0.48476562 0 0 Z " fill="#7CA177" transform="translate(149,104)"/>
<path d="M0 0 C0.33 0 0.66 0 1 0 C1.30487805 7.92682927 1.30487805 7.92682927 -1 11 C-3.4375 12.625 -3.4375 12.625 -6 14 C-6.99 14.66 -7.98 15.32 -9 16 C-7.53239731 9.8034553 -3.88851943 4.93130534 0 0 Z " fill="#699D62" transform="translate(113,142)"/>
<path d="M0 0 C2.86724686 0.57344937 3.8614515 0.8614515 6 3 C6.6328125 5.1640625 6.6328125 5.1640625 7.125 7.625 C7.29257812 8.44226563 7.46015625 9.25953125 7.6328125 10.1015625 C7.81457031 11.04128906 7.81457031 11.04128906 8 12 C7.525625 11.505 7.05125 11.01 6.5625 10.5 C5.24076302 8.88457803 5.24076302 8.88457803 4 9 C4.33 11.31 4.66 13.62 5 16 C4.34 16 3.68 16 3 16 C0 2.63106796 0 2.63106796 0 0 Z " fill="#729B6E" transform="translate(50,60)"/>
<path d="M0 0 C11.34303353 0.3506908 21.97079887 1.13924473 33 4 C33 4.33 33 4.66 33 5 C29.7 5 26.4 5 23 5 C23 4.34 23 3.68 23 3 C21.02 3.33 19.04 3.66 17 4 C17 3.34 17 2.68 17 2 C9.08 2.495 9.08 2.495 1 3 C0.67 2.01 0.34 1.02 0 0 Z " fill="#84A181" transform="translate(198,45)"/>
<path d="M0 0 C1.98 0 3.96 0 6 0 C6.33 0.66 6.66 1.32 7 2 C5.35 2 3.7 2 2 2 C2 3.32 2 4.64 2 6 C0.68 6 -0.64 6 -2 6 C-2 6.66 -2 7.32 -2 8 C-3.65 8 -5.3 8 -7 8 C-6.875 6.1875 -6.875 6.1875 -6 4 C-2.9375 2.25 -2.9375 2.25 0 1 C0 0.67 0 0.34 0 0 Z " fill="#4C9F42" transform="translate(133,72)"/>
<path d="M0 0 C2.125 0.375 2.125 0.375 4 1 C2.23977508 2.53309913 0.46646537 4.05118701 -1.3125 5.5625 C-2.29863281 6.40941406 -3.28476563 7.25632813 -4.30078125 8.12890625 C-5.19152344 8.74636719 -6.08226563 9.36382812 -7 10 C-7.99 9.67 -8.98 9.34 -10 9 C-10 8.34 -10 7.68 -10 7 C-10.66 6.67 -11.32 6.34 -12 6 C-12 5.34 -12 4.68 -12 4 C-11.34 4 -10.68 4 -10 4 C-9.67 3.34 -9.34 2.68 -9 2 C-8.67 2.66 -8.34 3.32 -8 4 C-8.33 4.66 -8.66 5.32 -9 6 C-8.34 5.34 -7.68 4.68 -7 4 C-4.375 3.875 -4.375 3.875 -2 4 C-2 3.34 -2 2.68 -2 2 C-1.34 1.34 -0.68 0.68 0 0 Z " fill="#75A26F" transform="translate(80,168)"/>
<path d="M0 0 C1.32 0.33 2.64 0.66 4 1 C4.125 4.375 4.125 4.375 4 8 C3.34 8.66 2.68 9.32 2 10 C-0.125 9.625 -0.125 9.625 -2 9 C-2.20140476 5.37471432 -1.85776765 3.13498292 0 0 Z " fill="#4C9F42" transform="translate(96,138)"/>
<path d="M0 0 C0.33 0.66 0.66 1.32 1 2 C-0.16963858 4.74097121 -1.39789038 7.3513469 -2.75 10 C-3.1109375 10.73734375 -3.471875 11.4746875 -3.84375 12.234375 C-4.19953125 12.94078125 -4.5553125 13.6471875 -4.921875 14.375 C-5.24768555 15.02210938 -5.57349609 15.66921875 -5.90917969 16.3359375 C-7 18 -7 18 -10 20 C-9.39009109 16.44219804 -8.4216319 13.3171411 -7 10 C-6.01 10 -5.02 10 -4 10 C-4 8.68 -4 7.36 -4 6 C-3.34 6 -2.68 6 -2 6 C-2 4.35 -2 2.7 -2 1 C-1.34 0.67 -0.68 0.34 0 0 Z " fill="#7A9C76" transform="translate(104,136)"/>
<path d="M0 0 C0.66 0.33 1.32 0.66 2 1 C-2.2 14.3 -2.2 14.3 -6 20 C-6.57374185 13.11509775 -5.4753869 8.97332123 -2 3 C-1.34 3 -0.68 3 0 3 C0 2.01 0 1.02 0 0 Z " fill="#70986B" transform="translate(215,91)"/>
<path d="M0 0 C1.79639296 1.09646058 3.58697154 2.20245148 5.375 3.3125 C6.37273437 3.92738281 7.37046875 4.54226562 8.3984375 5.17578125 C11 7 11 7 13 10 C11 11 11 11 9.0546875 10.44140625 C8.33539063 10.15136719 7.61609375 9.86132812 6.875 9.5625 C6.15054688 9.27503906 5.42609375 8.98757812 4.6796875 8.69140625 C4.12539062 8.46324219 3.57109375 8.23507813 3 8 C3 7.01 3 6.02 3 5 C2.01 4.34 1.02 3.68 0 3 C0 2.01 0 1.02 0 0 Z " fill="#6E9A69" transform="translate(62,44)"/>
<path d="M0 0 C1.32 0.33 2.64 0.66 4 1 C-1.93919307 4.67864914 -7.10796502 6.79662881 -14 8 C-14.33 7.34 -14.66 6.68 -15 6 C-14.21625 5.896875 -13.4325 5.79375 -12.625 5.6875 C-9.66954819 5.22404978 -9.66954819 5.22404978 -8 2 C-6.0546875 1.70703125 -6.0546875 1.70703125 -3.875 1.8125 C-2.59625 1.874375 -1.3175 1.93625 0 2 C0 1.34 0 0.68 0 0 Z " fill="#789E73" transform="translate(162,178)"/>
<path d="M0 0 C0.66 0.33 1.32 0.66 2 1 C1.14535156 1.84304687 0.29070312 2.68609375 -0.58984375 3.5546875 C-1.70586047 4.66132593 -2.82173872 5.76810402 -3.9375 6.875 C-4.50146484 7.43058594 -5.06542969 7.98617187 -5.64648438 8.55859375 C-8.69860028 11.4921571 -8.69860028 11.4921571 -11 15 C-11.66 15 -12.32 15 -13 15 C-13.33 15.66 -13.66 16.32 -14 17 C-14 15.68 -14 14.36 -14 13 C-13.34 13 -12.68 13 -12 13 C-12 12.34 -12 11.68 -12 11 C-11.21625 10.38125 -10.4325 9.7625 -9.625 9.125 C-7.13770844 7.11147826 -6.14461734 5.91357141 -5 3 C-4.34 3 -3.68 3 -3 3 C-3 2.34 -3 1.68 -3 1 C-2.01 0.67 -1.02 0.34 0 0 Z " fill="#6E9269" transform="translate(148,119)"/>
<path d="M0 0 C0.33 0 0.66 0 1 0 C1.1953125 6.0546875 1.1953125 6.0546875 1 8 C0.34 8.66 -0.32 9.32 -1 10 C-1.40047444 12.32275177 -1.7397104 14.65739357 -2 17 C-2.66 17 -3.32 17 -4 17 C-4.33 19.31 -4.66 21.62 -5 24 C-6.01843074 20.84703787 -5.95535405 18.9105862 -5.0390625 15.7421875 C-4.81476562 14.95199219 -4.59046875 14.16179687 -4.359375 13.34765625 C-3.99585937 12.12369141 -3.99585937 12.12369141 -3.625 10.875 C-3.39039063 10.05128906 -3.15578125 9.22757813 -2.9140625 8.37890625 C-1.18071308 2.36142616 -1.18071308 2.36142616 0 0 Z " fill="#869E83" transform="translate(23,92)"/>
<path d="M0 0 C0.33 0 0.66 0 1 0 C0.25 6.625 0.25 6.625 -2 10 C-2 10.99 -2 11.98 -2 13 C-1.34 13.66 -0.68 14.32 0 15 C-0.66 15.66 -1.32 16.32 -2 17 C-3.66666667 17 -5.33333333 17 -7 17 C-5.53012914 10.85326729 -2.94033413 5.57765673 0 0 Z " fill="#779D72" transform="translate(209,79)"/>
<path d="M0 0 C6.93 0.33 13.86 0.66 21 1 C18.38040376 3.61959624 16.45146207 3.28856227 12.87890625 3.32226562 C12.09386719 3.31904297 11.30882813 3.31582031 10.5 3.3125 C9.71496094 3.32861328 8.92992188 3.34472656 8.12109375 3.36132812 C5.84375 3.36328125 5.84375 3.36328125 2 3 C1.34 2.01 0.68 1.02 0 0 Z " fill="#599652" transform="translate(110,179)"/>
<path d="M0 0 C1.38550197 2.77100394 1.1877467 4.9334706 1 8 C0.01 9.485 0.01 9.485 -1 11 C-0.34 11 0.32 11 1 11 C1 12.65 1 14.3 1 16 C0.34 15.67 -0.32 15.34 -1 15 C-1 14.34 -1 13.68 -1 13 C-1.66 13 -2.32 13 -3 13 C-3 9.04 -3 5.08 -3 1 C-2.01 0.67 -1.02 0.34 0 0 Z " fill="#4C9F42" transform="translate(69,87)"/>
<path d="M0 0 C0.33 0 0.66 0 1 0 C1 6.27 1 12.54 1 19 C0.67 19 0.34 19 0 19 C-0.50404808 16.89679937 -1.00310508 14.79240209 -1.5 12.6875 C-1.91765625 10.92986328 -1.91765625 10.92986328 -2.34375 9.13671875 C-3 6 -3 6 -3 3 C-2.34 3 -1.68 3 -1 3 C-0.67 2.01 -0.34 1.02 0 0 Z " fill="#759D70" transform="translate(65,81)"/>
<path d="M0 0 C-1.11878383 1.17262904 -2.24523051 2.33795138 -3.375 3.5 C-4.00148437 4.1496875 -4.62796875 4.799375 -5.2734375 5.46875 C-7 7 -7 7 -9 7 C-9.33 7.66 -9.66 8.32 -10 9 C-10 8.01 -10 7.02 -10 6 C-10.66 5.34 -11.32 4.68 -12 4 C-10.56988027 3.13353333 -9.13059381 2.28218171 -7.6875 1.4375 C-6.48673828 0.72400391 -6.48673828 0.72400391 -5.26171875 -0.00390625 C-3 -1 -3 -1 0 0 Z " fill="#869E83" transform="translate(191,81)"/>
<path d="M0 0 C0.99 0.33 1.98 0.66 3 1 C0.36 4.63 -2.28 8.26 -5 12 C-6.10191901 7.59232396 -5.58706842 6.1077065 -4 2 C-2.68 2 -1.36 2 0 2 C0 1.34 0 0.68 0 0 Z " fill="#729D6D" transform="translate(228,72)"/>
<path d="M0 0 C4.62 0 9.24 0 14 0 C12.515 1.485 12.515 1.485 11 3 C11 3.33 11 3.66 11 4 C7.75 4.25 7.75 4.25 4 4 C2.68 2.68 1.36 1.36 0 0 Z " fill="#4B9F41" transform="translate(157,54)"/>
<path d="M0 0 C0.625 1.8125 0.625 1.8125 1 4 C0.01 5.485 0.01 5.485 -1 7 C-1.0825 7.61875 -1.165 8.2375 -1.25 8.875 C-2.46301264 12.31186915 -5.14409196 13.81249597 -8 16 C-8.66 15.67 -9.32 15.34 -10 15 C-9.40703125 14.45859375 -8.8140625 13.9171875 -8.203125 13.359375 C-5.82192007 10.80929029 -4.36579263 8.33469502 -2.75 5.25 C-1.96882813 3.77273437 -1.96882813 3.77273437 -1.171875 2.265625 C-0.78515625 1.51796875 -0.3984375 0.7703125 0 0 Z " fill="#7C9E78" transform="translate(103,158)"/>
<path d="M0 0 C0.99 0.33 1.98 0.66 3 1 C3.44041451 6.37305699 3.44041451 6.37305699 3 9 C0.5 11 0.5 11 -2 12 C-3 9 -3 9 -3 7 C-2.34 7 -1.68 7 -1 7 C-0.67 4.69 -0.34 2.38 0 0 Z " fill="#4D9E43" transform="translate(195,135)"/>
<path d="M0 0 C0.33 0 0.66 0 1 0 C1 3.3 1 6.6 1 10 C3.475 10.99 3.475 10.99 6 12 C4.1875 13.0625 4.1875 13.0625 2 14 C-1 13 -1 13 -2.3125 10.875 C-3.22601914 7.05482904 -2.33023316 4.64063813 -1 1 C-0.67 0.67 -0.34 0.34 0 0 Z " fill="#5B9852" transform="translate(108,166)"/>
<path d="M0 0 C0.33 0 0.66 0 1 0 C1.05864392 3.66659815 1.09381108 7.33307364 1.125 11 C1.14175781 12.02996094 1.15851563 13.05992188 1.17578125 14.12109375 C1.21401983 20.12455155 0.75493524 25.2515507 -1 31 C-1.33 31 -1.66 31 -2 31 C-2.02689216 29.52093108 -2.04634621 28.04172517 -2.0625 26.5625 C-2.07410156 25.73878906 -2.08570312 24.91507813 -2.09765625 24.06640625 C-2 22 -2 22 -1 21 C-0.84313751 19.44051458 -0.74923361 17.87457332 -0.68359375 16.30859375 C-0.62075195 14.89223633 -0.62075195 14.89223633 -0.55664062 13.44726562 C-0.51732422 12.45404297 -0.47800781 11.46082031 -0.4375 10.4375 C-0.37272461 8.94186523 -0.37272461 8.94186523 -0.30664062 7.41601562 C-0.20019702 4.9441585 -0.09818072 2.4721969 0 0 Z " fill="#6F896C" transform="translate(107,104)"/>
<path d="M0 0 C0.66 0 1.32 0 2 0 C3.30267176 5.50016964 2.71033431 10.47032059 2 16 C1.34 16 0.68 16 0 16 C-0.71033431 10.47032059 -1.30267176 5.50016964 0 0 Z " fill="#4B9F41" transform="translate(100,104)"/>
<path d="M0 0 C2.125 0.375 2.125 0.375 4 1 C0.27856704 4.91447559 -3.14032976 8.49653351 -8 11 C-8 10.34 -8 9.68 -8 9 C-8.66 8.67 -9.32 8.34 -10 8 C-8.68 8 -7.36 8 -6 8 C-6 7.34 -6 6.68 -6 6 C-5.01 6 -4.02 6 -3 6 C-2.814375 5.071875 -2.814375 5.071875 -2.625 4.125 C-2 2 -2 2 0 0 Z " fill="#779B72" transform="translate(180,164)"/>
<path d="M0 0 C2.3125 0.75 2.3125 0.75 5 2 C6.99620166 2.67795528 8.99538701 3.34733531 11 4 C11 4.66 11 5.32 11 6 C10.030625 5.855625 9.06125 5.71125 8.0625 5.5625 C3.71947831 4.93952558 -0.63765234 4.46492141 -5 4 C-3 2 -3 2 0 0 Z " fill="#4B9F41" transform="translate(141,178)"/>
<path d="M0 0 C0.99 0 1.98 0 3 0 C3 2 3 2 1.35546875 3.69140625 C0.64003906 4.30886719 -0.07539062 4.92632812 -0.8125 5.5625 C-1.87404297 6.49255859 -1.87404297 6.49255859 -2.95703125 7.44140625 C-5 9 -5 9 -8 10 C-7 7 -7 7 -5 4 C-4.34 4 -3.68 4 -3 4 C-3 3.34 -3 2.68 -3 2 C-2.01 2 -1.02 2 0 2 C0 1.34 0 0.68 0 0 Z " fill="#6D9468" transform="translate(38,220)"/>
<path d="M0 0 C3 1 3 1 5 4 C5.66 4 6.32 4 7 4 C8 7 8 7 8 10 C7.67 10.66 7.34 11.32 7 12 C5.82455195 10.56967163 4.65989738 9.13046758 3.5 7.6875 C2.8503125 6.88699219 2.200625 6.08648437 1.53125 5.26171875 C0 3 0 3 0 0 Z " fill="#769D71" transform="translate(20,156)"/>
<path d="M0 0 C0.66 0.33 1.32 0.66 2 1 C1.0919838 2.13199353 0.17316174 3.25532363 -0.75 4.375 C-1.26046875 5.00148437 -1.7709375 5.62796875 -2.296875 6.2734375 C-4.14259955 8.14456193 -5.517984 9.13792574 -8 10 C-10.25 9.625 -10.25 9.625 -12 9 C-11.21753906 8.43410156 -10.43507813 7.86820313 -9.62890625 7.28515625 C-8.61699219 6.55167969 -7.60507813 5.81820312 -6.5625 5.0625 C-5.55316406 4.33160156 -4.54382813 3.60070312 -3.50390625 2.84765625 C-1.17707392 1.22678115 -1.17707392 1.22678115 0 0 Z " fill="#88A384" transform="translate(87,178)"/>
<path d="M0 0 C1 2 1 2 0.375 4.9375 C-1.22279992 8.49623618 -2.45062331 9.49151491 -6 11 C-6.66 10.67 -7.32 10.34 -8 10 C-5.36 6.7 -2.72 3.4 0 0 Z " fill="#7DA178" transform="translate(126,125)"/>
<path d="M0 0 C0.33 0 0.66 0 1 0 C1.22769049 5.35072662 1.15297375 11.01363155 -1 16 C-3.078125 17.26171875 -3.078125 17.26171875 -5 18 C-4.80664062 17.45472656 -4.61328125 16.90945312 -4.4140625 16.34765625 C-2.55239547 10.9561948 -1.12344334 5.59078274 0 0 Z " fill="#829D7E" transform="translate(39,50)"/>
<path d="M0 0 C0.66 1.32 1.32 2.64 2 4 C1.360625 3.814375 0.72125 3.62875 0.0625 3.4375 C-0.9584375 3.2209375 -0.9584375 3.2209375 -2 3 C-2.33 3.33 -2.66 3.66 -3 4 C-4.66617115 4.04063832 -6.33388095 4.042721 -8 4 C-8 3.01 -8 2.02 -8 1 C-5.29120665 -0.35439668 -2.99066732 -0.06501451 0 0 Z " fill="#5F9D57" transform="translate(66,194)"/>
<path d="M0 0 C0.99 0 1.98 0 3 0 C2.67 1.32 2.34 2.64 2 4 C1.34 4 0.68 4 0 4 C-0.268125 4.61875 -0.53625 5.2375 -0.8125 5.875 C-2 8 -2 8 -5 10 C-5.33 9.01 -5.66 8.02 -6 7 C-4.68 6.67 -3.36 6.34 -2 6 C-2 4.68 -2 3.36 -2 2 C-1.34 1.34 -0.68 0.68 0 0 Z " fill="#7D9E79" transform="translate(91,156)"/>
<path d="M0 0 C0.66 0.33 1.32 0.66 2 1 C2.4140625 3.06640625 2.4140625 3.06640625 2.625 5.5625 C2.69976562 6.38878906 2.77453125 7.21507812 2.8515625 8.06640625 C2.92503906 9.02353516 2.92503906 9.02353516 3 10 C1.02 10.99 1.02 10.99 -1 12 C-0.67 8.04 -0.34 4.08 0 0 Z " fill="#4B9F41" transform="translate(94,125)"/>
<path d="M0 0 C-0.99 0.495 -0.99 0.495 -2 1 C-2.65555119 3.52733235 -2.65555119 3.52733235 -3 6 C-3.66 6 -4.32 6 -5 6 C-5.33 6.66 -5.66 7.32 -6 8 C-6.33 6.68 -6.66 5.36 -7 4 C-6.34 3.67 -5.68 3.34 -5 3 C-5.99 2.34 -6.98 1.68 -8 1 C-5.29120665 -0.35439668 -2.99066732 -0.06501451 0 0 Z " fill="#6D9D67" transform="translate(183,86)"/>
<path d="M0 0 C1.125 3.75 1.125 3.75 0 6 C-2.64 6 -5.28 6 -8 6 C-5.38485683 3.87961365 -2.80362384 1.86908256 0 0 Z " fill="#78A073" transform="translate(163,166)"/>
<path d="M0 0 C0.66 0.33 1.32 0.66 2 1 C2 1.99 2 2.98 2 4 C1.01 4.495 1.01 4.495 0 5 C-0.33 5.99 -0.66 6.98 -1 8 C-1.99 8 -2.98 8 -4 8 C-3.6875 5.125 -3.6875 5.125 -3 2 C-2.01 1.34 -1.02 0.68 0 0 Z " fill="#6B9D65" transform="translate(198,112)"/>
<path d="M0 0 C0.33 0 0.66 0 1 0 C1 1.98 1 3.96 1 6 C3.31 6 5.62 6 8 6 C7.67 6.66 7.34 7.32 7 8 C4.67843403 8.40729228 2.3431213 8.74438677 0 9 C0 6.03 0 3.06 0 0 Z " fill="#8BA788" transform="translate(60,174)"/>
<path d="M0 0 C1.14926266 0.95421808 2.29430541 1.91352045 3.4375 2.875 C4.07558594 3.40867188 4.71367188 3.94234375 5.37109375 4.4921875 C7 6 7 6 8 8 C5.625 8.1875 5.625 8.1875 3 8 C1.0549 5.08235 0.54723683 3.37462715 0 0 Z " fill="#749A6F" transform="translate(78,56)"/>
<path d="M0 0 C2.64 0.99 5.28 1.98 8 3 C7.67 4.32 7.34 5.64 7 7 C6.34 7 5.68 7 5 7 C5 6.34 5 5.68 5 5 C4.34 5 3.68 5 3 5 C3 4.34 3 3.68 3 3 C2.01 3 1.02 3 0 3 C0 2.01 0 1.02 0 0 Z " fill="#5E9A55" transform="translate(78,161)"/>
<path d="M0 0 C1.32 0 2.64 0 4 0 C4 0.66 4 1.32 4 2 C3.01 2 2.02 2 1 2 C1 2.66 1 3.32 1 4 C0.01 4.495 0.01 4.495 -1 5 C-1.33 5.99 -1.66 6.98 -2 8 C-2.99 8 -3.98 8 -5 8 C-4 6 -3 4 -2 2 C-1.34 2 -0.68 2 0 2 C0 1.34 0 0.68 0 0 Z " fill="#4BA041" transform="translate(144,118)"/>
<path d="M0 0 C0.33 0.66 0.66 1.32 1 2 C0.67 2.66 0.34 3.32 0 4 C1.65 4 3.3 4 5 4 C4.67 4.99 4.34 5.98 4 7 C1.03 6.505 1.03 6.505 -2 6 C-1.125 1.125 -1.125 1.125 0 0 Z " fill="#73A06D" transform="translate(112,78)"/>
<path d="M0 0 C0.66 0 1.32 0 2 0 C2 0.66 2 1.32 2 2 C3.32 2.33 4.64 2.66 6 3 C5.01 4.485 5.01 4.485 4 6 C1.525 5.01 1.525 5.01 -1 4 C-0.67 2.68 -0.34 1.36 0 0 Z " fill="#4D9D44" transform="translate(121,72)"/>
<path d="M0 0 C4.62 0 9.24 0 14 0 C14 1.32 14 2.64 14 4 C9.38 3.01 4.76 2.02 0 1 C0 0.67 0 0.34 0 0 Z " fill="#84A281" transform="translate(208,56)"/>
<path d="M0 0 C2.375 -0.1875 2.375 -0.1875 5 0 C5.66 0.99 6.32 1.98 7 3 C6 4 6 4 2.9375 4.0625 C1.4834375 4.0315625 1.4834375 4.0315625 0 4 C0 2.68 0 1.36 0 0 Z " fill="#4B9F41" transform="translate(206,48)"/>
<path d="M0 0 C0 0.99 0 1.98 0 3 C-2.97411124 4.23921302 -5.85262818 5.30058404 -9 6 C-8 3 -8 3 -5.0625 1.3125 C-2 0 -2 0 0 0 Z " fill="#7F9E7B" transform="translate(41,203)"/>
<path d="M0 0 C0.33 1.32 0.66 2.64 1 4 C-2.375 4.625 -2.375 4.625 -6 5 C-6.66 4.34 -7.32 3.68 -8 3 C-2.25 0 -2.25 0 0 0 Z " fill="#76A270" transform="translate(75,188)"/>
<path d="M0 0 C1.98 0 3.96 0 6 0 C6 0.66 6 1.32 6 2 C4 4 4 4 0.875 4.125 C-0.548125 4.063125 -0.548125 4.063125 -2 4 C-1.34 2.68 -0.68 1.36 0 0 Z " fill="#4BA041" transform="translate(162,174)"/>
<path d="M0 0 C0.66 0 1.32 0 2 0 C2.29296875 6.0546875 2.29296875 6.0546875 2 8 C1.01 8.66 0.02 9.32 -1 10 C-2.15837626 5.94568308 -1.83691257 3.78187881 0 0 Z " fill="#55984C" transform="translate(50,152)"/>
<path d="M0 0 C1.98 0 3.96 0 6 0 C5 2 5 2 2.93359375 2.8515625 C1.69802734 3.23441406 1.69802734 3.23441406 0.4375 3.625 C-0.80193359 4.01558594 -0.80193359 4.01558594 -2.06640625 4.4140625 C-2.70449219 4.60742188 -3.34257813 4.80078125 -4 5 C-4 4.01 -4 3.02 -4 2 C-2.68 2 -1.36 2 0 2 C0 1.34 0 0.68 0 0 Z " fill="#769872" transform="translate(78,194)"/>
<path d="M0 0 C2.6015625 -0.29296875 2.6015625 -0.29296875 5.625 -0.1875 C7.12933594 -0.14689453 7.12933594 -0.14689453 8.6640625 -0.10546875 C9.43492187 -0.07066406 10.20578125 -0.03585938 11 0 C8.03821227 1.67110042 5.62928808 2.32682752 2.25 2.625 C1.45078125 2.69976562 0.6515625 2.77453125 -0.171875 2.8515625 C-0.77515625 2.90054688 -1.3784375 2.94953125 -2 3 C-1.34 2.01 -0.68 1.02 0 0 Z " fill="#7D9E79" transform="translate(136,186)"/>
<path d="M0 0 C0.33 0.66 0.66 1.32 1 2 C0.06553465 4.03144641 -0.93224776 6.03533587 -2 8 C-3.32 7.67 -4.64 7.34 -6 7 C-4.02 4.69 -2.04 2.38 0 0 Z " fill="#6B9C65" transform="translate(92,174)"/>
<path d="M0 0 C0.99 0.33 1.98 0.66 3 1 C1.02 3.97 1.02 3.97 -1 7 C-1.99 5.68 -2.98 4.36 -4 3 C-2.1875 1.4375 -2.1875 1.4375 0 0 Z " fill="#729E6C" transform="translate(118,152)"/>
<path d="M0 0 C1.65 1.32 3.3 2.64 5 4 C4.67 4.99 4.34 5.98 4 7 C2.0625 6.6875 2.0625 6.6875 0 6 C-1 3 -1 3 0 0 Z " fill="#739F6D" transform="translate(86,64)"/>
<path d="M0 0 C1.9375 0.3125 1.9375 0.3125 4 1 C4.33 1.99 4.66 2.98 5 4 C2.36 4 -0.28 4 -3 4 C-2.01 2.68 -1.02 1.36 0 0 Z " fill="#6F9E69" transform="translate(137,114)"/>
<path d="M0 0 C2.46278801 1.231394 3.42497687 2.78064923 5 5 C3.02 5 1.04 5 -1 5 C-1 4.34 -1 3.68 -1 3 C-1.66 2.67 -2.32 2.34 -3 2 C-2.01 1.34 -1.02 0.68 0 0 Z " fill="#70A069" transform="translate(124,69)"/>
<path d="M0 0 C1.32 0.33 2.64 0.66 4 1 C2.35 2.98 0.7 4.96 -1 7 C-2 4 -2 4 -1.0625 1.8125 C-0.5365625 0.9153125 -0.5365625 0.9153125 0 0 Z " fill="#7C9E78" transform="translate(187,156)"/>
<path d="M0 0 C0.6875 1.8125 0.6875 1.8125 1 4 C-0.4375 5.5625 -0.4375 5.5625 -2 7 C-2 7.99 -2 8.98 -2 10 C-2.99 10 -3.98 10 -5 10 C-3.66511872 6.40608886 -2.03977277 3.24509304 0 0 Z " fill="#849D81" transform="translate(183,142)"/>
<path d="M0 0 C0.66 0.33 1.32 0.66 2 1 C1.01 4.3 0.02 7.6 -1 11 C-1.33 11 -1.66 11 -2 11 C-2 8.03 -2 5.06 -2 2 C-1.34 2 -0.68 2 0 2 C0 1.34 0 0.68 0 0 Z " fill="#7C9E78" transform="translate(211,100)"/>
<path d="M0 0 C4.42857143 5.14285714 4.42857143 5.14285714 5 9 C4.01 9.495 4.01 9.495 3 10 C2.67 9.01 2.34 8.02 2 7 C1.34 6.34 0.68 5.68 0 5 C-0.125 2.375 -0.125 2.375 0 0 Z " fill="#7F9E7B" transform="translate(97,78)"/>
<path d="M0 0 C0.33 0.99 0.66 1.98 1 3 C0 4 0 4 -3.5625 4.0625 C-4.696875 4.041875 -5.83125 4.02125 -7 4 C-7 3.34 -7 2.68 -7 2 C-2.25 0 -2.25 0 0 0 Z " fill="#4B9F41" transform="translate(119,78)"/>
<path d="M0 0 C0.66 0.33 1.32 0.66 2 1 C1.34 2.65 0.68 4.3 0 6 C-1.65 6 -3.3 6 -5 6 C-4.67 5.34 -4.34 4.68 -4 4 C-3.34 4 -2.68 4 -2 4 C-2 3.34 -2 2.68 -2 2 C-1.34 2 -0.68 2 0 2 C0 1.34 0 0.68 0 0 Z " fill="#7DA079" transform="translate(169,160)"/>
<path d="M0 0 C0.66 0.66 1.32 1.32 2 2 C0.69593116 4.01920337 -0.63823419 6.01924973 -2 8 C-2.33 8 -2.66 8 -3 8 C-3 5.69 -3 3.38 -3 1 C-2.01 1.33 -1.02 1.66 0 2 C0 1.34 0 0.68 0 0 Z " fill="#7B9E77" transform="translate(124,144)"/>
<path d="M0 0 C1.32 0.33 2.64 0.66 4 1 C2.35 2.98 0.7 4.96 -1 7 C-1.66 6.01 -2.32 5.02 -3 4 C-2.34 4 -1.68 4 -1 4 C-0.67 2.68 -0.34 1.36 0 0 Z " fill="#7C9D78" transform="translate(130,136)"/>
<path d="M0 0 C0.33 0 0.66 0 1 0 C1.29296875 6.0546875 1.29296875 6.0546875 1 8 C0.01 8.66 -0.98 9.32 -2 10 C-1.125 2.25 -1.125 2.25 0 0 Z " fill="#749B6F" transform="translate(23,92)"/>
<path d="M0 0 C-2.3125 2.0625 -2.3125 2.0625 -5 4 C-5.99 3.67 -6.98 3.34 -8 3 C-7.67 2.01 -7.34 1.02 -7 0 C-4.05610218 -1.17755913 -3.10046087 -1.03348696 0 0 Z " fill="#7B9D77" transform="translate(48,216)"/>
<path d="M0 0 C0 3.26795703 -0.57850516 5.0821948 -2 8 C-2.99 8.66 -3.98 9.32 -5 10 C-3.84414715 6.08788267 -2.64465038 3.1254959 0 0 Z " fill="#8AA288" transform="translate(109,148)"/>
<path d="M0 0 C0.66 0 1.32 0 2 0 C1.34 2.97 0.68 5.94 0 9 C-2 5 -2 5 -1.125 2.25 C-0.75375 1.5075 -0.3825 0.765 0 0 Z " fill="#7A9B76" transform="translate(207,112)"/>
<path d="M0 0 C1.98 0.495 1.98 0.495 4 1 C3.34 1.66 2.68 2.32 2 3 C2 3.99 2 4.98 2 6 C1.01 5.67 0.02 5.34 -1 5 C-0.67 3.35 -0.34 1.7 0 0 Z " fill="#529A49" transform="translate(175,88)"/>
<path d="M0 0 C0.66 0 1.32 0 2 0 C0.8141763 3.37503669 -0.27573689 5.64722731 -3 8 C-3 6.35 -3 4.7 -3 3 C-2.01 2.67 -1.02 2.34 0 2 C0 1.34 0 0.68 0 0 Z " fill="#71976C" transform="translate(234,64)"/>
<path d="M0 0 C0.61875 0.928125 0.61875 0.928125 1.25 1.875 C3.05573879 4.06768281 4.4090534 4.92788417 7 6 C5.0085944 6.38133299 3.00720923 6.71325582 1 7 C0 6 0 6 -0.0625 2.9375 C-0.041875 1.968125 -0.02125 0.99875 0 0 Z " fill="#90A98D" transform="translate(107,173)"/>
<path d="M0 0 C1.32 0.33 2.64 0.66 4 1 C3.67 2.65 3.34 4.3 3 6 C2.01 5.67 1.02 5.34 0 5 C0 3.33333333 0 1.66666667 0 0 Z " fill="#639E5B" transform="translate(67,174)"/>
<path d="M0 0 C1.45606519 4.52092968 0.27032841 7.51648796 -1 12 C-1.33 12 -1.66 12 -2 12 C-2.05422947 10.5629191 -2.09289723 9.12524538 -2.125 7.6875 C-2.14820312 6.88699219 -2.17140625 6.08648437 -2.1953125 5.26171875 C-2 3 -2 3 0 0 Z " fill="#86A083" transform="translate(107,123)"/>
<path d="M0 0 C0.99 0.99 1.98 1.98 3 3 C1.68 3 0.36 3 -1 3 C-1 3.66 -1 4.32 -1 5 C-1.99 4.67 -2.98 4.34 -4 4 C-3.67 3.01 -3.34 2.02 -3 1 C-2.01 0.67 -1.02 0.34 0 0 Z " fill="#4B9F41" transform="translate(139,117)"/>
<path d="M0 0 C0.75 1.75 0.75 1.75 1 4 C-0.9375 6.25 -0.9375 6.25 -3 8 C-3.33 7.01 -3.66 6.02 -4 5 C-3.01 5 -2.02 5 -1 5 C-1.33 3.68 -1.66 2.36 -2 1 C-1.34 0.67 -0.68 0.34 0 0 Z " fill="#789B74" transform="translate(242,53)"/>
<path d="M0 0 C0 0.66 0 1.32 0 2 C-2.90600261 3.25664978 -4.79604584 4 -8 4 C-8 3.34 -8 2.68 -8 2 C-4.91190305 0.23537317 -3.76687864 0 0 0 Z " fill="#5B9554" transform="translate(171,50)"/>
</svg>
